<svg width="536" height="46" viewBox="0 0 536 46" fill="none" xmlns="http://www.w3.org/2000/svg">
<path d="M10.9432 7.14773H9.17045C9.10227 6.76894 8.97538 6.43561 8.78977 6.14773C8.60417 5.85985 8.37689 5.61553 8.10795 5.41477C7.83902 5.21401 7.53788 5.0625 7.20455 4.96023C6.875 4.85795 6.52462 4.80682 6.15341 4.80682C5.48295 4.80682 4.88258 4.97538 4.35227 5.3125C3.82576 5.64962 3.40909 6.14394 3.10227 6.79545C2.79924 7.44697 2.64773 8.24242 2.64773 9.18182C2.64773 10.1288 2.79924 10.928 3.10227 11.5795C3.40909 12.2311 3.82765 12.7235 4.35795 13.0568C4.88826 13.3902 5.48485 13.5568 6.14773 13.5568C6.51515 13.5568 6.86364 13.5076 7.19318 13.4091C7.52652 13.3068 7.82765 13.1572 8.09659 12.9602C8.36553 12.7633 8.5928 12.5227 8.77841 12.2386C8.9678 11.9508 9.09848 11.6212 9.17045 11.25L10.9432 11.2557C10.8485 11.8277 10.6648 12.3542 10.392 12.8352C10.1231 13.3125 9.77652 13.7254 9.35227 14.0739C8.93182 14.4186 8.45076 14.6856 7.90909 14.875C7.36742 15.0644 6.77652 15.1591 6.13636 15.1591C5.12879 15.1591 4.23106 14.9205 3.44318 14.4432C2.6553 13.9621 2.03409 13.2746 1.57955 12.3807C1.12879 11.4867 0.903409 10.4205 0.903409 9.18182C0.903409 7.93939 1.13068 6.87311 1.58523 5.98295C2.03977 5.08901 2.66098 4.40341 3.44886 3.92614C4.23674 3.44508 5.13258 3.20455 6.13636 3.20455C6.75379 3.20455 7.32955 3.29356 7.86364 3.47159C8.40152 3.64583 8.88447 3.90341 9.3125 4.24432C9.74053 4.58144 10.0947 4.99432 10.375 5.48295C10.6553 5.9678 10.8447 6.52273 10.9432 7.14773ZM12.9077 15V6.27273H14.5497V7.65909H14.6406C14.7997 7.18939 15.08 6.82008 15.4815 6.55114C15.8868 6.27841 16.3452 6.14205 16.8565 6.14205C16.9626 6.14205 17.0876 6.14583 17.2315 6.15341C17.3793 6.16098 17.4948 6.17045 17.5781 6.18182V7.80682C17.5099 7.78788 17.3887 7.76705 17.2145 7.74432C17.0402 7.7178 16.866 7.70455 16.6918 7.70455C16.2902 7.70455 15.9323 7.78977 15.6179 7.96023C15.3073 8.12689 15.0611 8.35985 14.8793 8.65909C14.6974 8.95455 14.6065 9.29167 14.6065 9.67045V15H12.9077ZM22.4972 15.1761C21.6373 15.1761 20.8968 14.9924 20.2756 14.625C19.6581 14.2538 19.1809 13.733 18.8438 13.0625C18.5104 12.3883 18.3438 11.5985 18.3438 10.6932C18.3438 9.79924 18.5104 9.01136 18.8438 8.32955C19.1809 7.64773 19.6506 7.11553 20.2528 6.73295C20.8589 6.35038 21.5672 6.15909 22.3778 6.15909C22.8703 6.15909 23.3475 6.24053 23.8097 6.40341C24.2718 6.56629 24.6866 6.82197 25.054 7.17045C25.4214 7.51894 25.7112 7.97159 25.9233 8.52841C26.1354 9.08144 26.2415 9.75379 26.2415 10.5455V11.1477H19.304V9.875H24.5767C24.5767 9.42803 24.4858 9.0322 24.304 8.6875C24.1222 8.33902 23.8665 8.06439 23.5369 7.86364C23.2112 7.66288 22.8286 7.5625 22.3892 7.5625C21.9119 7.5625 21.4953 7.67992 21.1392 7.91477C20.7869 8.14583 20.5142 8.44886 20.321 8.82386C20.1316 9.19508 20.0369 9.59848 20.0369 10.0341V11.0284C20.0369 11.6117 20.1392 12.108 20.3438 12.517C20.5521 12.9261 20.8419 13.2386 21.2131 13.4545C21.5843 13.6667 22.018 13.7727 22.5142 13.7727C22.8362 13.7727 23.1297 13.7273 23.3949 13.6364C23.66 13.5417 23.8892 13.4015 24.0824 13.2159C24.2756 13.0303 24.4233 12.8011 24.5256 12.5284L26.1335 12.8182C26.0047 13.2917 25.7737 13.7064 25.4403 14.0625C25.1108 14.4148 24.696 14.6894 24.196 14.8864C23.6998 15.0795 23.1335 15.1761 22.4972 15.1761ZM31.3935 15.1705C30.6889 15.1705 30.0601 14.9905 29.5071 14.6307C28.9579 14.267 28.526 13.75 28.2116 13.0795C27.901 12.4053 27.7457 11.5966 27.7457 10.6534C27.7457 9.71023 27.9029 8.90341 28.2173 8.23295C28.5355 7.5625 28.9711 7.04924 29.5241 6.69318C30.0772 6.33712 30.7041 6.15909 31.4048 6.15909C31.9465 6.15909 32.3821 6.25 32.7116 6.43182C33.045 6.60985 33.3026 6.81818 33.4844 7.05682C33.67 7.29545 33.8139 7.50568 33.9162 7.6875H34.0185V3.36364H35.7173V15H34.0582V13.642H33.9162C33.8139 13.8277 33.6662 14.0398 33.473 14.2784C33.2836 14.517 33.0223 14.7254 32.6889 14.9034C32.3556 15.0814 31.9238 15.1705 31.3935 15.1705ZM31.7685 13.7216C32.2571 13.7216 32.67 13.5928 33.0071 13.3352C33.348 13.0739 33.6056 12.7121 33.7798 12.25C33.9579 11.7879 34.0469 11.25 34.0469 10.6364C34.0469 10.0303 33.9598 9.5 33.7855 9.04545C33.6113 8.59091 33.3556 8.23674 33.0185 7.98295C32.6813 7.72917 32.2647 7.60227 31.7685 7.60227C31.2571 7.60227 30.831 7.73485 30.4901 8C30.1491 8.26515 29.8916 8.62689 29.7173 9.08523C29.5469 9.54356 29.4616 10.0606 29.4616 10.6364C29.4616 11.2197 29.5488 11.7443 29.723 12.2102C29.8973 12.6761 30.1548 13.0455 30.4957 13.3182C30.8404 13.5871 31.2647 13.7216 31.7685 13.7216ZM38.142 15V6.27273H39.8409V15H38.142ZM39 4.92614C38.7045 4.92614 38.4508 4.82765 38.2386 4.63068C38.0303 4.42992 37.9261 4.19129 37.9261 3.91477C37.9261 3.63447 38.0303 3.39583 38.2386 3.19886C38.4508 2.99811 38.7045 2.89773 39 2.89773C39.2955 2.89773 39.5473 2.99811 39.7557 3.19886C39.9678 3.39583 40.0739 3.63447 40.0739 3.91477C40.0739 4.19129 39.9678 4.42992 39.7557 4.63068C39.5473 4.82765 39.2955 4.92614 39 4.92614ZM46.2003 6.27273V7.63636H41.4332V6.27273H46.2003ZM42.7116 4.18182H44.4105V12.4375C44.4105 12.767 44.4598 13.0152 44.5582 13.1818C44.6567 13.3447 44.7836 13.4564 44.9389 13.517C45.098 13.5739 45.2704 13.6023 45.456 13.6023C45.5923 13.6023 45.7116 13.5928 45.8139 13.5739C45.9162 13.5549 45.9957 13.5398 46.0526 13.5284L46.3594 14.9318C46.2609 14.9697 46.1207 15.0076 45.9389 15.0455C45.7571 15.0871 45.5298 15.1098 45.2571 15.1136C44.8101 15.1212 44.3935 15.0417 44.0071 14.875C43.6207 14.7083 43.3082 14.4508 43.0696 14.1023C42.831 13.7538 42.7116 13.3163 42.7116 12.7898V4.18182ZM55.9901 15.1761C55.1719 15.1761 54.4579 14.9886 53.848 14.6136C53.2382 14.2386 52.7647 13.714 52.4276 13.0398C52.0904 12.3655 51.9219 11.5777 51.9219 10.6761C51.9219 9.77083 52.0904 8.97917 52.4276 8.30114C52.7647 7.62311 53.2382 7.09659 53.848 6.72159C54.4579 6.34659 55.1719 6.15909 55.9901 6.15909C56.8082 6.15909 57.5223 6.34659 58.1321 6.72159C58.742 7.09659 59.2154 7.62311 59.5526 8.30114C59.8897 8.97917 60.0582 9.77083 60.0582 10.6761C60.0582 11.5777 59.8897 12.3655 59.5526 13.0398C59.2154 13.714 58.742 14.2386 58.1321 14.6136C57.5223 14.9886 56.8082 15.1761 55.9901 15.1761ZM55.9957 13.75C56.526 13.75 56.9654 13.6098 57.3139 13.3295C57.6624 13.0492 57.92 12.6761 58.0866 12.2102C58.2571 11.7443 58.3423 11.2311 58.3423 10.6705C58.3423 10.1136 58.2571 9.60227 58.0866 9.13636C57.92 8.66667 57.6624 8.28977 57.3139 8.00568C56.9654 7.72159 56.526 7.57955 55.9957 7.57955C55.4616 7.57955 55.0185 7.72159 54.6662 8.00568C54.3177 8.28977 54.0582 8.66667 53.8878 9.13636C53.7211 9.60227 53.6378 10.1136 53.6378 10.6705C53.6378 11.2311 53.7211 11.7443 53.8878 12.2102C54.0582 12.6761 54.3177 13.0492 54.6662 13.3295C55.0185 13.6098 55.4616 13.75 55.9957 13.75ZM61.9545 15V6.27273H63.5966V7.65909H63.6875C63.8466 7.18939 64.1269 6.82008 64.5284 6.55114C64.9337 6.27841 65.392 6.14205 65.9034 6.14205C66.0095 6.14205 66.1345 6.14583 66.2784 6.15341C66.4261 6.16098 66.5417 6.17045 66.625 6.18182V7.80682C66.5568 7.78788 66.4356 7.76705 66.2614 7.74432C66.0871 7.7178 65.9129 7.70455 65.7386 7.70455C65.3371 7.70455 64.9792 7.78977 64.6648 7.96023C64.3542 8.12689 64.108 8.35985 63.9261 8.65909C63.7443 8.95455 63.6534 9.29167 63.6534 9.67045V15H61.9545ZM75.5966 15.1705C74.892 15.1705 74.2633 14.9905 73.7102 14.6307C73.161 14.267 72.7292 13.75 72.4148 13.0795C72.1042 12.4053 71.9489 11.5966 71.9489 10.6534C71.9489 9.71023 72.1061 8.90341 72.4205 8.23295C72.7386 7.5625 73.1742 7.04924 73.7273 6.69318C74.2803 6.33712 74.9072 6.15909 75.608 6.15909C76.1496 6.15909 76.5852 6.25 76.9148 6.43182C77.2481 6.60985 77.5057 6.81818 77.6875 7.05682C77.8731 7.29545 78.017 7.50568 78.1193 7.6875H78.2216V3.36364H79.9205V15H78.2614V13.642H78.1193C78.017 13.8277 77.8693 14.0398 77.6761 14.2784C77.4867 14.517 77.2254 14.7254 76.892 14.9034C76.5587 15.0814 76.1269 15.1705 75.5966 15.1705ZM75.9716 13.7216C76.4602 13.7216 76.8731 13.5928 77.2102 13.3352C77.5511 13.0739 77.8087 12.7121 77.983 12.25C78.161 11.7879 78.25 11.25 78.25 10.6364C78.25 10.0303 78.1629 9.5 77.9886 9.04545C77.8144 8.59091 77.5587 8.23674 77.2216 7.98295C76.8845 7.72917 76.4678 7.60227 75.9716 7.60227C75.4602 7.60227 75.0341 7.73485 74.6932 8C74.3523 8.26515 74.0947 8.62689 73.9205 9.08523C73.75 9.54356 73.6648 10.0606 73.6648 10.6364C73.6648 11.2197 73.7519 11.7443 73.9261 12.2102C74.1004 12.6761 74.358 13.0455 74.6989 13.3182C75.0436 13.5871 75.4678 13.7216 75.9716 13.7216ZM86.1065 15.1761C85.2467 15.1761 84.5062 14.9924 83.8849 14.625C83.2675 14.2538 82.7902 13.733 82.4531 13.0625C82.1198 12.3883 81.9531 11.5985 81.9531 10.6932C81.9531 9.79924 82.1198 9.01136 82.4531 8.32955C82.7902 7.64773 83.2599 7.11553 83.8622 6.73295C84.4683 6.35038 85.1766 6.15909 85.9872 6.15909C86.4796 6.15909 86.9569 6.24053 87.419 6.40341C87.8812 6.56629 88.2959 6.82197 88.6634 7.17045C89.0308 7.51894 89.3205 7.97159 89.5327 8.52841C89.7448 9.08144 89.8509 9.75379 89.8509 10.5455V11.1477H82.9134V9.875H88.1861C88.1861 9.42803 88.0952 9.0322 87.9134 8.6875C87.7315 8.33902 87.4759 8.06439 87.1463 7.86364C86.8205 7.66288 86.438 7.5625 85.9986 7.5625C85.5213 7.5625 85.1046 7.67992 84.7486 7.91477C84.3963 8.14583 84.1236 8.44886 83.9304 8.82386C83.741 9.19508 83.6463 9.59848 83.6463 10.0341V11.0284C83.6463 11.6117 83.7486 12.108 83.9531 12.517C84.1615 12.9261 84.4512 13.2386 84.8224 13.4545C85.1937 13.6667 85.6274 13.7727 86.1236 13.7727C86.4455 13.7727 86.7391 13.7273 87.0043 13.6364C87.2694 13.5417 87.4986 13.4015 87.6918 13.2159C87.8849 13.0303 88.0327 12.8011 88.1349 12.5284L89.7429 12.8182C89.6141 13.2917 89.383 13.7064 89.0497 14.0625C88.7202 14.4148 88.3054 14.6894 87.8054 14.8864C87.3092 15.0795 86.7429 15.1761 86.1065 15.1761ZM91.8722 15V3.36364H93.571V7.6875H93.6733C93.7718 7.50568 93.9138 7.29545 94.0994 7.05682C94.285 6.81818 94.5426 6.60985 94.8722 6.43182C95.2017 6.25 95.6373 6.15909 96.179 6.15909C96.8835 6.15909 97.5123 6.33712 98.0653 6.69318C98.6184 7.04924 99.0521 7.5625 99.3665 8.23295C99.6847 8.90341 99.8438 9.71023 99.8438 10.6534C99.8438 11.5966 99.6866 12.4053 99.3722 13.0795C99.0578 13.75 98.6259 14.267 98.0767 14.6307C97.5275 14.9905 96.9006 15.1705 96.196 15.1705C95.6657 15.1705 95.232 15.0814 94.8949 14.9034C94.5616 14.7254 94.3002 14.517 94.1108 14.2784C93.9214 14.0398 93.7756 13.8277 93.6733 13.642H93.5312V15H91.8722ZM93.5369 10.6364C93.5369 11.25 93.6259 11.7879 93.804 12.25C93.982 12.7121 94.2396 13.0739 94.5767 13.3352C94.9138 13.5928 95.3267 13.7216 95.8153 13.7216C96.3229 13.7216 96.7472 13.5871 97.0881 13.3182C97.429 13.0455 97.6866 12.6761 97.8608 12.2102C98.0388 11.7443 98.1278 11.2197 98.1278 10.6364C98.1278 10.0606 98.0407 9.54356 97.8665 9.08523C97.696 8.62689 97.4384 8.26515 97.0938 8C96.7528 7.73485 96.3267 7.60227 95.8153 7.60227C95.3229 7.60227 94.9062 7.72917 94.5653 7.98295C94.2282 8.23674 93.9725 8.59091 93.7983 9.04545C93.6241 9.5 93.5369 10.0303 93.5369 10.6364ZM101.751 15V6.27273H103.45V15H101.751ZM102.609 4.92614C102.314 4.92614 102.06 4.82765 101.848 4.63068C101.64 4.42992 101.536 4.19129 101.536 3.91477C101.536 3.63447 101.64 3.39583 101.848 3.19886C102.06 2.99811 102.314 2.89773 102.609 2.89773C102.905 2.89773 103.157 2.99811 103.365 3.19886C103.577 3.39583 103.683 3.63447 103.683 3.91477C103.683 4.19129 103.577 4.42992 103.365 4.63068C103.157 4.82765 102.905 4.92614 102.609 4.92614ZM109.81 6.27273V7.63636H105.043V6.27273H109.81ZM106.321 4.18182H108.02V12.4375C108.02 12.767 108.069 13.0152 108.168 13.1818C108.266 13.3447 108.393 13.4564 108.548 13.517C108.707 13.5739 108.88 13.6023 109.065 13.6023C109.202 13.6023 109.321 13.5928 109.423 13.5739C109.526 13.5549 109.605 13.5398 109.662 13.5284L109.969 14.9318C109.87 14.9697 109.73 15.0076 109.548 15.0455C109.366 15.0871 109.139 15.1098 108.866 15.1136C108.42 15.1212 108.003 15.0417 107.616 14.875C107.23 14.7083 106.918 14.4508 106.679 14.1023C106.44 13.7538 106.321 13.3163 106.321 12.7898V4.18182ZM119.599 15.1761C118.755 15.1761 118.027 14.9848 117.418 14.6023C116.812 14.2159 116.346 13.6837 116.02 13.0057C115.694 12.3277 115.531 11.5511 115.531 10.6761C115.531 9.78977 115.698 9.00758 116.031 8.32955C116.365 7.64773 116.834 7.11553 117.44 6.73295C118.046 6.35038 118.76 6.15909 119.582 6.15909C120.245 6.15909 120.836 6.2822 121.355 6.52841C121.874 6.77083 122.293 7.11174 122.611 7.55114C122.933 7.99053 123.124 8.50379 123.185 9.09091H121.531C121.44 8.68182 121.232 8.32955 120.906 8.03409C120.584 7.73864 120.152 7.59091 119.611 7.59091C119.137 7.59091 118.723 7.71591 118.366 7.96591C118.014 8.21212 117.74 8.56439 117.543 9.02273C117.346 9.47727 117.247 10.0152 117.247 10.6364C117.247 11.2727 117.344 11.822 117.537 12.2841C117.73 12.7462 118.003 13.1042 118.355 13.358C118.711 13.6117 119.13 13.7386 119.611 13.7386C119.933 13.7386 120.224 13.6799 120.486 13.5625C120.751 13.4413 120.973 13.2689 121.151 13.0455C121.332 12.822 121.459 12.553 121.531 12.2386H123.185C123.124 12.803 122.94 13.3068 122.634 13.75C122.327 14.1932 121.916 14.5417 121.401 14.7955C120.889 15.0492 120.289 15.1761 119.599 15.1761ZM127.541 15.1932C126.988 15.1932 126.488 15.0909 126.041 14.8864C125.594 14.678 125.24 14.3769 124.979 13.983C124.721 13.589 124.592 13.1061 124.592 12.5341C124.592 12.0417 124.687 11.6364 124.876 11.3182C125.066 11 125.321 10.7481 125.643 10.5625C125.965 10.3769 126.325 10.2367 126.723 10.142C127.121 10.0473 127.526 9.97538 127.939 9.92614C128.462 9.86553 128.886 9.81629 129.212 9.77841C129.537 9.73674 129.774 9.67045 129.922 9.57955C130.07 9.48864 130.143 9.34091 130.143 9.13636V9.09659C130.143 8.60038 130.003 8.21591 129.723 7.94318C129.446 7.67045 129.034 7.53409 128.484 7.53409C127.912 7.53409 127.462 7.66098 127.132 7.91477C126.806 8.16477 126.581 8.44318 126.456 8.75L124.859 8.38636C125.049 7.85606 125.325 7.42803 125.689 7.10227C126.056 6.77273 126.479 6.53409 126.956 6.38636C127.433 6.23485 127.935 6.15909 128.462 6.15909C128.81 6.15909 129.179 6.20076 129.57 6.28409C129.964 6.36364 130.331 6.51136 130.672 6.72727C131.017 6.94318 131.299 7.25189 131.518 7.65341C131.738 8.05114 131.848 8.56818 131.848 9.20455V15H130.189V13.8068H130.121C130.011 14.0265 129.846 14.2424 129.626 14.4545C129.407 14.6667 129.125 14.8428 128.78 14.983C128.435 15.1231 128.022 15.1932 127.541 15.1932ZM127.911 13.8295C128.38 13.8295 128.782 13.7367 129.115 13.5511C129.452 13.3655 129.708 13.1231 129.882 12.8239C130.06 12.5208 130.149 12.197 130.149 11.8523V10.7273C130.089 10.7879 129.971 10.8447 129.797 10.8977C129.626 10.947 129.431 10.9905 129.212 11.0284C128.992 11.0625 128.778 11.0947 128.57 11.125C128.361 11.1515 128.187 11.1742 128.047 11.1932C127.717 11.2348 127.416 11.3049 127.143 11.4034C126.875 11.5019 126.659 11.6439 126.496 11.8295C126.337 12.0114 126.257 12.2538 126.257 12.5568C126.257 12.9773 126.412 13.2955 126.723 13.5114C127.034 13.7235 127.429 13.8295 127.911 13.8295ZM134.111 15V6.27273H135.753V7.65909H135.844C136.003 7.18939 136.283 6.82008 136.685 6.55114C137.09 6.27841 137.548 6.14205 138.06 6.14205C138.166 6.14205 138.291 6.14583 138.435 6.15341C138.582 6.16098 138.698 6.17045 138.781 6.18182V7.80682C138.713 7.78788 138.592 7.76705 138.418 7.74432C138.243 7.7178 138.069 7.70455 137.895 7.70455C137.493 7.70455 137.135 7.78977 136.821 7.96023C136.51 8.12689 136.264 8.35985 136.082 8.65909C135.901 8.95455 135.81 9.29167 135.81 9.67045V15H134.111ZM143.206 15.1705C142.501 15.1705 141.873 14.9905 141.32 14.6307C140.77 14.267 140.339 13.75 140.024 13.0795C139.714 12.4053 139.558 11.5966 139.558 10.6534C139.558 9.71023 139.715 8.90341 140.03 8.23295C140.348 7.5625 140.784 7.04924 141.337 6.69318C141.89 6.33712 142.517 6.15909 143.217 6.15909C143.759 6.15909 144.195 6.25 144.524 6.43182C144.857 6.60985 145.115 6.81818 145.297 7.05682C145.482 7.29545 145.626 7.50568 145.729 7.6875H145.831V3.36364H147.53V15H145.871V13.642H145.729C145.626 13.8277 145.479 14.0398 145.286 14.2784C145.096 14.517 144.835 14.7254 144.501 14.9034C144.168 15.0814 143.736 15.1705 143.206 15.1705ZM143.581 13.7216C144.07 13.7216 144.482 13.5928 144.82 13.3352C145.161 13.0739 145.418 12.7121 145.592 12.25C145.77 11.7879 145.859 11.25 145.859 10.6364C145.859 10.0303 145.772 9.5 145.598 9.04545C145.424 8.59091 145.168 8.23674 144.831 7.98295C144.494 7.72917 144.077 7.60227 143.581 7.60227C143.07 7.60227 142.643 7.73485 142.303 8C141.962 8.26515 141.704 8.62689 141.53 9.08523C141.359 9.54356 141.274 10.0606 141.274 10.6364C141.274 11.2197 141.361 11.7443 141.536 12.2102C141.71 12.6761 141.967 13.0455 142.308 13.3182C142.653 13.5871 143.077 13.7216 143.581 13.7216ZM156.494 8.40341L154.955 8.67614C154.89 8.47917 154.788 8.29167 154.648 8.11364C154.511 7.93561 154.326 7.78977 154.091 7.67614C153.856 7.5625 153.563 7.50568 153.21 7.50568C152.729 7.50568 152.328 7.61364 152.006 7.82955C151.684 8.04167 151.523 8.31629 151.523 8.65341C151.523 8.94508 151.631 9.17992 151.847 9.35795C152.063 9.53598 152.411 9.68182 152.892 9.79545L154.278 10.1136C155.081 10.2992 155.68 10.5852 156.074 10.9716C156.468 11.358 156.665 11.8598 156.665 12.4773C156.665 13 156.513 13.4659 156.21 13.875C155.911 14.2803 155.492 14.5985 154.955 14.8295C154.42 15.0606 153.801 15.1761 153.097 15.1761C152.119 15.1761 151.322 14.9678 150.705 14.5511C150.087 14.1307 149.708 13.5341 149.568 12.7614L151.21 12.5114C151.313 12.9394 151.523 13.2633 151.841 13.483C152.159 13.6989 152.574 13.8068 153.085 13.8068C153.642 13.8068 154.087 13.6913 154.42 13.4602C154.754 13.2254 154.92 12.9394 154.92 12.6023C154.92 12.3295 154.818 12.1004 154.614 11.9148C154.413 11.7292 154.104 11.589 153.688 11.4943L152.21 11.1705C151.396 10.9848 150.794 10.6894 150.403 10.2841C150.017 9.87879 149.824 9.36553 149.824 8.74432C149.824 8.22917 149.968 7.77841 150.256 7.39205C150.544 7.00568 150.941 6.70455 151.449 6.48864C151.956 6.26894 152.538 6.15909 153.193 6.15909C154.136 6.15909 154.879 6.36364 155.42 6.77273C155.962 7.17803 156.32 7.72159 156.494 8.40341Z" fill="#717171"/>
<path d="M0.840909 28.3182V27.3636H9.27841V28.3182H5.59091V39H4.52841V28.3182H0.840909ZM13.723 39.1818C12.9086 39.1818 12.2041 38.9924 11.6094 38.6136C11.0147 38.2311 10.5545 37.7027 10.2287 37.0284C9.90672 36.3504 9.74574 35.5701 9.74574 34.6875C9.74574 33.8087 9.90672 33.0284 10.2287 32.3466C10.5545 31.661 11.0033 31.125 11.5753 30.7386C12.151 30.3485 12.8158 30.1534 13.5696 30.1534C14.0431 30.1534 14.4995 30.2405 14.9389 30.4148C15.3783 30.5852 15.7723 30.8485 16.1207 31.2045C16.473 31.5568 16.7514 32.0019 16.956 32.5398C17.1605 33.0739 17.2628 33.7064 17.2628 34.4375V34.9375H10.4446V34.0455H16.2287C16.2287 33.4848 16.1151 32.9811 15.8878 32.5341C15.6643 32.0833 15.3518 31.7273 14.9503 31.4659C14.5526 31.2045 14.0923 31.0739 13.5696 31.0739C13.0166 31.0739 12.5298 31.2216 12.1094 31.517C11.6889 31.8125 11.3594 32.2027 11.1207 32.6875C10.8859 33.1723 10.7666 33.7027 10.7628 34.2784V34.8125C10.7628 35.5057 10.8821 36.1117 11.1207 36.6307C11.3632 37.1458 11.706 37.5455 12.1491 37.8295C12.5923 38.1136 13.117 38.2557 13.723 38.2557C14.1359 38.2557 14.4976 38.1913 14.8082 38.0625C15.1226 37.9337 15.3859 37.7614 15.598 37.5455C15.8139 37.3258 15.9768 37.0852 16.0866 36.8239L17.0469 37.1364C16.9143 37.5038 16.6965 37.8428 16.3935 38.1534C16.0942 38.464 15.7192 38.714 15.2685 38.9034C14.8215 39.089 14.3063 39.1818 13.723 39.1818ZM22.9006 39.1818C22.1203 39.1818 21.4403 38.9867 20.8608 38.5966C20.285 38.2064 19.8381 37.6723 19.5199 36.9943C19.2017 36.3163 19.0426 35.5436 19.0426 34.6761C19.0426 33.8011 19.2036 33.0227 19.5256 32.3409C19.8513 31.6591 20.3021 31.125 20.8778 30.7386C21.4536 30.3485 22.1222 30.1534 22.8835 30.1534C23.4669 30.1534 23.9953 30.267 24.4688 30.4943C24.9422 30.7178 25.3324 31.0341 25.6392 31.4432C25.9498 31.8485 26.1449 32.322 26.2244 32.8636H25.2017C25.0956 32.3712 24.84 31.9508 24.4347 31.6023C24.0331 31.25 23.5218 31.0739 22.9006 31.0739C22.3438 31.0739 21.8513 31.2254 21.4233 31.5284C20.9953 31.8277 20.66 32.2462 20.4176 32.7841C20.179 33.3182 20.0597 33.9375 20.0597 34.642C20.0597 35.3504 20.1771 35.9773 20.4119 36.5227C20.6468 37.0644 20.9763 37.4886 21.4006 37.7955C21.8286 38.1023 22.3286 38.2557 22.9006 38.2557C23.2869 38.2557 23.6392 38.1837 23.9574 38.0398C24.2794 37.892 24.5483 37.6837 24.7642 37.4148C24.9839 37.1458 25.1316 36.8258 25.2074 36.4545H26.2301C26.1544 36.9811 25.9669 37.4508 25.6676 37.8636C25.3722 38.2727 24.9877 38.5947 24.5142 38.8295C24.0445 39.0644 23.5066 39.1818 22.9006 39.1818ZM29.4091 33.5455V39H28.3977V27.3636H29.4091V31.642H29.5C29.7045 31.1913 30.0208 30.8314 30.4489 30.5625C30.8807 30.2936 31.4261 30.1591 32.0852 30.1591C32.6761 30.1591 33.1951 30.2803 33.642 30.5227C34.089 30.7652 34.4375 31.1231 34.6875 31.5966C34.9375 32.0701 35.0625 32.6534 35.0625 33.3466V39H34.0455V33.4091C34.0455 32.6894 33.8447 32.1231 33.4432 31.7102C33.0455 31.2936 32.5076 31.0852 31.8295 31.0852C31.3636 31.0852 30.9489 31.1837 30.5852 31.3807C30.2216 31.5777 29.9337 31.8617 29.7216 32.233C29.5133 32.6004 29.4091 33.0379 29.4091 33.5455ZM42.4361 39V27.3636H43.4986V32.6989H50.1009V27.3636H51.1634V39H50.1009V33.6534H43.4986V39H42.4361ZM57.5668 39.1818C56.7524 39.1818 56.0478 38.9924 55.4531 38.6136C54.8584 38.2311 54.3982 37.7027 54.0724 37.0284C53.7505 36.3504 53.5895 35.5701 53.5895 34.6875C53.5895 33.8087 53.7505 33.0284 54.0724 32.3466C54.3982 31.661 54.8471 31.125 55.419 30.7386C55.9948 30.3485 56.6596 30.1534 57.4134 30.1534C57.8868 30.1534 58.3433 30.2405 58.7827 30.4148C59.2221 30.5852 59.616 30.8485 59.9645 31.2045C60.3168 31.5568 60.5952 32.0019 60.7997 32.5398C61.0043 33.0739 61.1065 33.7064 61.1065 34.4375V34.9375H54.2884V34.0455H60.0724C60.0724 33.4848 59.9588 32.9811 59.7315 32.5341C59.508 32.0833 59.1955 31.7273 58.794 31.4659C58.3963 31.2045 57.9361 31.0739 57.4134 31.0739C56.8603 31.0739 56.3736 31.2216 55.9531 31.517C55.5327 31.8125 55.2031 32.2027 54.9645 32.6875C54.7296 33.1723 54.6103 33.7027 54.6065 34.2784V34.8125C54.6065 35.5057 54.7259 36.1117 54.9645 36.6307C55.2069 37.1458 55.5497 37.5455 55.9929 37.8295C56.4361 38.1136 56.9607 38.2557 57.5668 38.2557C57.9796 38.2557 58.3414 38.1913 58.652 38.0625C58.9664 37.9337 59.2296 37.7614 59.4418 37.5455C59.6577 37.3258 59.8205 37.0852 59.9304 36.8239L60.8906 37.1364C60.758 37.5038 60.5402 37.8428 60.2372 38.1534C59.938 38.464 59.563 38.714 59.1122 38.9034C58.6652 39.089 58.1501 39.1818 57.5668 39.1818ZM63.3466 39V30.2727H64.3636V39H63.3466ZM63.8636 28.7727C63.6553 28.7727 63.4773 28.7027 63.3295 28.5625C63.1818 28.4186 63.108 28.2462 63.108 28.0455C63.108 27.8447 63.1818 27.6742 63.3295 27.5341C63.4773 27.3902 63.6553 27.3182 63.8636 27.3182C64.072 27.3182 64.25 27.3902 64.3977 27.5341C64.5455 27.6742 64.6193 27.8447 64.6193 28.0455C64.6193 28.2462 64.5455 28.4186 64.3977 28.5625C64.25 28.7027 64.072 28.7727 63.8636 28.7727ZM67.0384 39V30.2727H68.0213V31.6136H68.1122C68.2865 31.1629 68.5762 30.8087 68.9815 30.5511C69.3906 30.2898 69.8812 30.1591 70.4531 30.1591C71.0554 30.1591 71.5497 30.3011 71.9361 30.5852C72.3262 30.8655 72.6179 31.2519 72.8111 31.7443H72.8849C73.0819 31.2595 73.402 30.875 73.8452 30.5909C74.2921 30.303 74.8338 30.1591 75.4702 30.1591C76.2808 30.1591 76.9209 30.4148 77.3906 30.9261C77.8603 31.4337 78.0952 32.1761 78.0952 33.1534V39H77.0838V33.1534C77.0838 32.464 76.9077 31.947 76.5554 31.6023C76.2031 31.2576 75.7391 31.0852 75.1634 31.0852C74.4967 31.0852 73.9834 31.2898 73.6236 31.6989C73.2637 32.108 73.0838 32.6269 73.0838 33.2557V39H72.0497V33.0625C72.0497 32.4716 71.8849 31.9943 71.5554 31.6307C71.2259 31.267 70.7618 31.0852 70.1634 31.0852C69.7618 31.0852 69.4001 31.1837 69.0781 31.3807C68.7599 31.5777 68.508 31.8523 68.3224 32.2045C68.1406 32.553 68.0497 32.9545 68.0497 33.4091V39H67.0384ZM87.7102 39.1989C87.1837 39.1989 86.7027 39.0966 86.267 38.892C85.8314 38.6837 85.4848 38.3845 85.2273 37.9943C84.9697 37.6004 84.8409 37.1231 84.8409 36.5625C84.8409 36.1307 84.9223 35.767 85.0852 35.4716C85.2481 35.1761 85.4792 34.9337 85.7784 34.7443C86.0777 34.5549 86.4318 34.4053 86.8409 34.2955C87.25 34.1856 87.7008 34.1004 88.1932 34.0398C88.6818 33.9792 89.0947 33.9261 89.4318 33.8807C89.7727 33.8352 90.0322 33.7633 90.2102 33.6648C90.3883 33.5663 90.4773 33.4072 90.4773 33.1875V32.983C90.4773 32.3883 90.2992 31.9205 89.9432 31.5795C89.5909 31.2348 89.0833 31.0625 88.4205 31.0625C87.7917 31.0625 87.2784 31.2008 86.8807 31.4773C86.4867 31.7538 86.2102 32.0795 86.0511 32.4545L85.0909 32.108C85.2879 31.6307 85.5606 31.25 85.9091 30.9659C86.2576 30.678 86.6477 30.4716 87.0795 30.3466C87.5114 30.2178 87.9489 30.1534 88.392 30.1534C88.7254 30.1534 89.072 30.197 89.4318 30.2841C89.7955 30.3712 90.1326 30.5227 90.4432 30.7386C90.7538 30.9508 91.0057 31.2481 91.1989 31.6307C91.392 32.0095 91.4886 32.4905 91.4886 33.0739V39H90.4773V37.6193H90.4148C90.2936 37.8769 90.1136 38.1269 89.875 38.3693C89.6364 38.6117 89.3371 38.8106 88.9773 38.9659C88.6174 39.1212 88.1951 39.1989 87.7102 39.1989ZM87.8466 38.2727C88.3845 38.2727 88.8504 38.1534 89.2443 37.9148C89.6383 37.6761 89.9413 37.3598 90.1534 36.9659C90.3693 36.5682 90.4773 36.1307 90.4773 35.6534V34.392C90.4015 34.464 90.2746 34.5284 90.0966 34.5852C89.9223 34.642 89.7197 34.6932 89.4886 34.7386C89.2614 34.7803 89.0341 34.8163 88.8068 34.8466C88.5795 34.8769 88.375 34.9034 88.1932 34.9261C87.7008 34.9867 87.2803 35.0814 86.9318 35.2102C86.5833 35.339 86.3163 35.517 86.1307 35.7443C85.9451 35.9678 85.8523 36.2557 85.8523 36.608C85.8523 37.1383 86.0417 37.5492 86.4205 37.8409C86.7992 38.1288 87.2746 38.2727 87.8466 38.2727ZM97.5881 39.1818C96.8078 39.1818 96.1278 38.9867 95.5483 38.5966C94.9725 38.2064 94.5256 37.6723 94.2074 36.9943C93.8892 36.3163 93.7301 35.5436 93.7301 34.6761C93.7301 33.8011 93.8911 33.0227 94.2131 32.3409C94.5388 31.6591 94.9896 31.125 95.5653 30.7386C96.1411 30.3485 96.8097 30.1534 97.571 30.1534C98.1544 30.1534 98.6828 30.267 99.1562 30.4943C99.6297 30.7178 100.02 31.0341 100.327 31.4432C100.637 31.8485 100.832 32.322 100.912 32.8636H99.8892C99.7831 32.3712 99.5275 31.9508 99.1222 31.6023C98.7206 31.25 98.2093 31.0739 97.5881 31.0739C97.0313 31.0739 96.5388 31.2254 96.1108 31.5284C95.6828 31.8277 95.3475 32.2462 95.1051 32.7841C94.8665 33.3182 94.7472 33.9375 94.7472 34.642C94.7472 35.3504 94.8646 35.9773 95.0994 36.5227C95.3343 37.0644 95.6638 37.4886 96.0881 37.7955C96.5161 38.1023 97.0161 38.2557 97.5881 38.2557C97.9744 38.2557 98.3267 38.1837 98.6449 38.0398C98.9669 37.892 99.2358 37.6837 99.4517 37.4148C99.6714 37.1458 99.8191 36.8258 99.8949 36.4545H100.918C100.842 36.9811 100.654 37.4508 100.355 37.8636C100.06 38.2727 99.6752 38.5947 99.2017 38.8295C98.732 39.0644 98.1941 39.1818 97.5881 39.1818ZM106.494 39.1818C105.714 39.1818 105.034 38.9867 104.455 38.5966C103.879 38.2064 103.432 37.6723 103.114 36.9943C102.795 36.3163 102.636 35.5436 102.636 34.6761C102.636 33.8011 102.797 33.0227 103.119 32.3409C103.445 31.6591 103.896 31.125 104.472 30.7386C105.047 30.3485 105.716 30.1534 106.477 30.1534C107.061 30.1534 107.589 30.267 108.062 30.4943C108.536 30.7178 108.926 31.0341 109.233 31.4432C109.544 31.8485 109.739 32.322 109.818 32.8636H108.795C108.689 32.3712 108.434 31.9508 108.028 31.6023C107.627 31.25 107.116 31.0739 106.494 31.0739C105.938 31.0739 105.445 31.2254 105.017 31.5284C104.589 31.8277 104.254 32.2462 104.011 32.7841C103.773 33.3182 103.653 33.9375 103.653 34.642C103.653 35.3504 103.771 35.9773 104.006 36.5227C104.241 37.0644 104.57 37.4886 104.994 37.7955C105.422 38.1023 105.922 38.2557 106.494 38.2557C106.881 38.2557 107.233 38.1837 107.551 38.0398C107.873 37.892 108.142 37.6837 108.358 37.4148C108.578 37.1458 108.725 36.8258 108.801 36.4545H109.824C109.748 36.9811 109.561 37.4508 109.261 37.8636C108.966 38.2727 108.581 38.5947 108.108 38.8295C107.638 39.0644 107.1 39.1818 106.494 39.1818ZM115.52 39.1818C114.705 39.1818 114.001 38.9924 113.406 38.6136C112.812 38.2311 112.351 37.7027 112.026 37.0284C111.704 36.3504 111.543 35.5701 111.543 34.6875C111.543 33.8087 111.704 33.0284 112.026 32.3466C112.351 31.661 112.8 31.125 113.372 30.7386C113.948 30.3485 114.613 30.1534 115.366 30.1534C115.84 30.1534 116.296 30.2405 116.736 30.4148C117.175 30.5852 117.569 30.8485 117.918 31.2045C118.27 31.5568 118.548 32.0019 118.753 32.5398C118.957 33.0739 119.06 33.7064 119.06 34.4375V34.9375H112.241V34.0455H118.026C118.026 33.4848 117.912 32.9811 117.685 32.5341C117.461 32.0833 117.149 31.7273 116.747 31.4659C116.349 31.2045 115.889 31.0739 115.366 31.0739C114.813 31.0739 114.327 31.2216 113.906 31.517C113.486 31.8125 113.156 32.2027 112.918 32.6875C112.683 33.1723 112.563 33.7027 112.56 34.2784V34.8125C112.56 35.5057 112.679 36.1117 112.918 36.6307C113.16 37.1458 113.503 37.5455 113.946 37.8295C114.389 38.1136 114.914 38.2557 115.52 38.2557C115.933 38.2557 116.295 38.1913 116.605 38.0625C116.92 37.9337 117.183 37.7614 117.395 37.5455C117.611 37.3258 117.774 37.0852 117.884 36.8239L118.844 37.1364C118.711 37.5038 118.493 37.8428 118.19 38.1534C117.891 38.464 117.516 38.714 117.065 38.9034C116.618 39.089 116.103 39.1818 115.52 39.1818ZM121.288 42.2727V30.2727H122.271V31.9375H122.391C122.512 31.6761 122.679 31.4091 122.891 31.1364C123.103 30.8598 123.383 30.6269 123.732 30.4375C124.084 30.2481 124.527 30.1534 125.061 30.1534C125.781 30.1534 126.41 30.3428 126.947 30.7216C127.489 31.0966 127.91 31.6231 128.209 32.3011C128.512 32.9754 128.663 33.7614 128.663 34.6591C128.663 35.5606 128.512 36.3504 128.209 37.0284C127.91 37.7064 127.489 38.2348 126.947 38.6136C126.41 38.9924 125.785 39.1818 125.072 39.1818C124.546 39.1818 124.105 39.0871 123.749 38.8977C123.396 38.7083 123.11 38.4754 122.891 38.1989C122.675 37.9186 122.508 37.6458 122.391 37.3807H122.3V42.2727H121.288ZM122.288 34.642C122.288 35.3466 122.393 35.9716 122.601 36.517C122.813 37.0587 123.116 37.4848 123.51 37.7955C123.908 38.1023 124.389 38.2557 124.953 38.2557C125.533 38.2557 126.021 38.0966 126.419 37.7784C126.821 37.4564 127.125 37.0227 127.334 36.4773C127.546 35.9318 127.652 35.3201 127.652 34.642C127.652 33.9716 127.548 33.3674 127.339 32.8295C127.135 32.2917 126.832 31.8655 126.43 31.5511C126.029 31.233 125.536 31.0739 124.953 31.0739C124.385 31.0739 123.902 31.2273 123.504 31.5341C123.107 31.8371 122.804 32.2576 122.595 32.7955C122.391 33.3295 122.288 33.9451 122.288 34.642ZM134.32 30.2727V31.1534H130.155V30.2727H134.32ZM131.456 28.1818H132.473V36.7216C132.473 37.0852 132.536 37.3712 132.661 37.5795C132.786 37.7841 132.948 37.9299 133.149 38.017C133.35 38.1004 133.564 38.142 133.791 38.142C133.924 38.142 134.037 38.1345 134.132 38.1193C134.227 38.1004 134.31 38.0814 134.382 38.0625L134.598 38.9773C134.5 39.0152 134.378 39.0492 134.234 39.0795C134.09 39.1136 133.912 39.1307 133.7 39.1307C133.329 39.1307 132.971 39.0492 132.626 38.8864C132.286 38.7235 132.005 38.4811 131.786 38.1591C131.566 37.8371 131.456 37.4375 131.456 36.9602V28.1818ZM142.324 32.1875L141.398 32.4489C141.307 32.1875 141.178 31.9508 141.011 31.7386C140.845 31.5265 140.627 31.358 140.358 31.233C140.093 31.108 139.763 31.0455 139.369 31.0455C138.778 31.0455 138.294 31.1856 137.915 31.4659C137.536 31.7462 137.347 32.108 137.347 32.5511C137.347 32.9261 137.475 33.2311 137.733 33.4659C137.994 33.697 138.396 33.8807 138.938 34.017L140.256 34.3409C140.987 34.5189 141.534 34.8011 141.898 35.1875C142.265 35.5739 142.449 36.0587 142.449 36.642C142.449 37.1345 142.313 37.572 142.04 37.9545C141.767 38.3371 141.386 38.6383 140.898 38.858C140.413 39.0739 139.85 39.1818 139.21 39.1818C138.358 39.1818 137.655 38.9905 137.102 38.608C136.549 38.2216 136.195 37.6648 136.04 36.9375L137.011 36.6989C137.136 37.2178 137.381 37.6098 137.744 37.875C138.112 38.1402 138.595 38.2727 139.193 38.2727C139.864 38.2727 140.4 38.1231 140.801 37.8239C141.203 37.5208 141.403 37.142 141.403 36.6875C141.403 36.3352 141.286 36.0398 141.051 35.8011C140.816 35.5587 140.46 35.3807 139.983 35.267L138.557 34.9261C137.799 34.7443 137.239 34.4564 136.875 34.0625C136.511 33.6686 136.33 33.1799 136.33 32.5966C136.33 32.1155 136.46 31.6932 136.722 31.3295C136.983 30.9621 137.343 30.6742 137.801 30.4659C138.259 30.2576 138.782 30.1534 139.369 30.1534C140.169 30.1534 140.807 30.3352 141.284 30.6989C141.765 31.0587 142.112 31.5549 142.324 32.1875ZM149.163 39V30.2727H150.146V31.6136H150.237C150.411 31.1629 150.701 30.8087 151.107 30.5511C151.516 30.2898 152.006 30.1591 152.578 30.1591C153.18 30.1591 153.675 30.3011 154.061 30.5852C154.451 30.8655 154.743 31.2519 154.936 31.7443H155.01C155.207 31.2595 155.527 30.875 155.97 30.5909C156.417 30.303 156.959 30.1591 157.595 30.1591C158.406 30.1591 159.046 30.4148 159.516 30.9261C159.985 31.4337 160.22 32.1761 160.22 33.1534V39H159.209V33.1534C159.209 32.464 159.033 31.947 158.68 31.6023C158.328 31.2576 157.864 31.0852 157.288 31.0852C156.622 31.0852 156.108 31.2898 155.749 31.6989C155.389 32.108 155.209 32.6269 155.209 33.2557V39H154.175V33.0625C154.175 32.4716 154.01 31.9943 153.68 31.6307C153.351 31.267 152.887 31.0852 152.288 31.0852C151.887 31.0852 151.525 31.1837 151.203 31.3807C150.885 31.5777 150.633 31.8523 150.447 32.2045C150.266 32.553 150.175 32.9545 150.175 33.4091V39H149.163ZM165.335 39.1989C164.809 39.1989 164.328 39.0966 163.892 38.892C163.456 38.6837 163.11 38.3845 162.852 37.9943C162.595 37.6004 162.466 37.1231 162.466 36.5625C162.466 36.1307 162.547 35.767 162.71 35.4716C162.873 35.1761 163.104 34.9337 163.403 34.7443C163.703 34.5549 164.057 34.4053 164.466 34.2955C164.875 34.1856 165.326 34.1004 165.818 34.0398C166.307 33.9792 166.72 33.9261 167.057 33.8807C167.398 33.8352 167.657 33.7633 167.835 33.6648C168.013 33.5663 168.102 33.4072 168.102 33.1875V32.983C168.102 32.3883 167.924 31.9205 167.568 31.5795C167.216 31.2348 166.708 31.0625 166.045 31.0625C165.417 31.0625 164.903 31.2008 164.506 31.4773C164.112 31.7538 163.835 32.0795 163.676 32.4545L162.716 32.108C162.913 31.6307 163.186 31.25 163.534 30.9659C163.883 30.678 164.273 30.4716 164.705 30.3466C165.136 30.2178 165.574 30.1534 166.017 30.1534C166.35 30.1534 166.697 30.197 167.057 30.2841C167.42 30.3712 167.758 30.5227 168.068 30.7386C168.379 30.9508 168.631 31.2481 168.824 31.6307C169.017 32.0095 169.114 32.4905 169.114 33.0739V39H168.102V37.6193H168.04C167.919 37.8769 167.739 38.1269 167.5 38.3693C167.261 38.6117 166.962 38.8106 166.602 38.9659C166.242 39.1212 165.82 39.1989 165.335 39.1989ZM165.472 38.2727C166.009 38.2727 166.475 38.1534 166.869 37.9148C167.263 37.6761 167.566 37.3598 167.778 36.9659C167.994 36.5682 168.102 36.1307 168.102 35.6534V34.392C168.027 34.464 167.9 34.5284 167.722 34.5852C167.547 34.642 167.345 34.6932 167.114 34.7386C166.886 34.7803 166.659 34.8163 166.432 34.8466C166.205 34.8769 166 34.9034 165.818 34.9261C165.326 34.9867 164.905 35.0814 164.557 35.2102C164.208 35.339 163.941 35.517 163.756 35.7443C163.57 35.9678 163.477 36.2557 163.477 36.608C163.477 37.1383 163.667 37.5492 164.045 37.8409C164.424 38.1288 164.9 38.2727 165.472 38.2727ZM171.815 30.2727H172.832V39.8466C172.832 40.3428 172.74 40.7708 172.554 41.1307C172.372 41.4943 172.107 41.7746 171.759 41.9716C171.41 42.1723 170.99 42.2727 170.497 42.2727C170.459 42.2727 170.421 42.2727 170.384 42.2727C170.346 42.2727 170.304 42.2708 170.259 42.267L170.27 41.3182C170.308 41.3182 170.344 41.3182 170.378 41.3182C170.412 41.3182 170.448 41.3182 170.486 41.3182C170.902 41.3182 171.228 41.1894 171.463 40.9318C171.698 40.6742 171.815 40.3125 171.815 39.8466V30.2727ZM172.315 28.7727C172.111 28.7727 171.933 28.7027 171.781 28.5625C171.634 28.4186 171.56 28.2462 171.56 28.0455C171.56 27.8447 171.634 27.6742 171.781 27.5341C171.933 27.3902 172.111 27.3182 172.315 27.3182C172.524 27.3182 172.702 27.3902 172.849 27.5341C173.001 27.6742 173.077 27.8447 173.077 28.0455C173.077 28.2462 173.001 28.4186 172.849 28.5625C172.702 28.7027 172.524 28.7727 172.315 28.7727ZM178.899 39.1818C178.145 39.1818 177.479 38.9905 176.899 38.608C176.323 38.2254 175.873 37.697 175.547 37.0227C175.221 36.3447 175.058 35.5625 175.058 34.6761C175.058 33.7822 175.221 32.9962 175.547 32.3182C175.873 31.6364 176.323 31.1061 176.899 30.7273C177.479 30.3447 178.145 30.1534 178.899 30.1534C179.653 30.1534 180.318 30.3447 180.893 30.7273C181.469 31.1098 181.92 31.6402 182.246 32.3182C182.575 32.9962 182.74 33.7822 182.74 34.6761C182.74 35.5625 182.577 36.3447 182.251 37.0227C181.926 37.697 181.473 38.2254 180.893 38.608C180.318 38.9905 179.653 39.1818 178.899 39.1818ZM178.899 38.2557C179.505 38.2557 180.018 38.0928 180.439 37.767C180.859 37.4413 181.178 37.0076 181.393 36.4659C181.613 35.9242 181.723 35.3277 181.723 34.6761C181.723 34.0246 181.613 33.4261 181.393 32.8807C181.178 32.3352 180.859 31.8977 180.439 31.5682C180.018 31.2386 179.505 31.0739 178.899 31.0739C178.297 31.0739 177.784 31.2386 177.359 31.5682C176.939 31.8977 176.619 32.3352 176.399 32.8807C176.183 33.4261 176.075 34.0246 176.075 34.6761C176.075 35.3277 176.183 35.9242 176.399 36.4659C176.619 37.0076 176.939 37.4413 177.359 37.767C177.78 38.0928 178.293 38.2557 178.899 38.2557ZM184.96 39V30.2727H185.943V31.6136H186.017C186.191 31.1742 186.494 30.8201 186.926 30.5511C187.362 30.2784 187.854 30.142 188.403 30.142C188.487 30.142 188.58 30.1439 188.682 30.1477C188.784 30.1515 188.869 30.1553 188.938 30.1591V31.1875C188.892 31.1799 188.813 31.1686 188.699 31.1534C188.585 31.1383 188.462 31.1307 188.33 31.1307C187.875 31.1307 187.47 31.2273 187.114 31.4205C186.761 31.6098 186.483 31.8731 186.278 32.2102C186.074 32.5473 185.972 32.9318 185.972 33.3636V39H184.96ZM198.572 39.1818C197.792 39.1818 197.112 38.9867 196.533 38.5966C195.957 38.2064 195.51 37.6723 195.192 36.9943C194.874 36.3163 194.714 35.5436 194.714 34.6761C194.714 33.8011 194.875 33.0227 195.197 32.3409C195.523 31.6591 195.974 31.125 196.55 30.7386C197.125 30.3485 197.794 30.1534 198.555 30.1534C199.139 30.1534 199.667 30.267 200.141 30.4943C200.614 30.7178 201.004 31.0341 201.311 31.4432C201.622 31.8485 201.817 32.322 201.896 32.8636H200.874C200.768 32.3712 200.512 31.9508 200.107 31.6023C199.705 31.25 199.194 31.0739 198.572 31.0739C198.016 31.0739 197.523 31.2254 197.095 31.5284C196.667 31.8277 196.332 32.2462 196.089 32.7841C195.851 33.3182 195.732 33.9375 195.732 34.642C195.732 35.3504 195.849 35.9773 196.084 36.5227C196.319 37.0644 196.648 37.4886 197.072 37.7955C197.5 38.1023 198 38.2557 198.572 38.2557C198.959 38.2557 199.311 38.1837 199.629 38.0398C199.951 37.892 200.22 37.6837 200.436 37.4148C200.656 37.1458 200.804 36.8258 200.879 36.4545H201.902C201.826 36.9811 201.639 37.4508 201.339 37.8636C201.044 38.2727 200.66 38.5947 200.186 38.8295C199.716 39.0644 199.179 39.1818 198.572 39.1818ZM204.07 39V30.2727H205.053V31.6136H205.126C205.301 31.1742 205.604 30.8201 206.036 30.5511C206.471 30.2784 206.964 30.142 207.513 30.142C207.596 30.142 207.689 30.1439 207.791 30.1477C207.893 30.1515 207.979 30.1553 208.047 30.1591V31.1875C208.001 31.1799 207.922 31.1686 207.808 31.1534C207.695 31.1383 207.571 31.1307 207.439 31.1307C206.984 31.1307 206.579 31.2273 206.223 31.4205C205.871 31.6098 205.592 31.8731 205.388 32.2102C205.183 32.5473 205.081 32.9318 205.081 33.3636V39H204.07ZM213.036 39.1818C212.221 39.1818 211.517 38.9924 210.922 38.6136C210.327 38.2311 209.867 37.7027 209.541 37.0284C209.219 36.3504 209.058 35.5701 209.058 34.6875C209.058 33.8087 209.219 33.0284 209.541 32.3466C209.867 31.661 210.316 31.125 210.888 30.7386C211.464 30.3485 212.128 30.1534 212.882 30.1534C213.356 30.1534 213.812 30.2405 214.251 30.4148C214.691 30.5852 215.085 30.8485 215.433 31.2045C215.786 31.5568 216.064 32.0019 216.268 32.5398C216.473 33.0739 216.575 33.7064 216.575 34.4375V34.9375H209.757V34.0455H215.541C215.541 33.4848 215.428 32.9811 215.2 32.5341C214.977 32.0833 214.664 31.7273 214.263 31.4659C213.865 31.2045 213.405 31.0739 212.882 31.0739C212.329 31.0739 211.842 31.2216 211.422 31.517C211.001 31.8125 210.672 32.2027 210.433 32.6875C210.198 33.1723 210.079 33.7027 210.075 34.2784V34.8125C210.075 35.5057 210.195 36.1117 210.433 36.6307C210.676 37.1458 211.018 37.5455 211.462 37.8295C211.905 38.1136 212.429 38.2557 213.036 38.2557C213.448 38.2557 213.81 38.1913 214.121 38.0625C214.435 37.9337 214.698 37.7614 214.911 37.5455C215.126 37.3258 215.289 37.0852 215.399 36.8239L216.359 37.1364C216.227 37.5038 216.009 37.8428 215.706 38.1534C215.407 38.464 215.032 38.714 214.581 38.9034C214.134 39.089 213.619 39.1818 213.036 39.1818ZM221.946 39.1818C221.23 39.1818 220.603 38.9924 220.065 38.6136C219.527 38.2348 219.107 37.7064 218.804 37.0284C218.505 36.3504 218.355 35.5606 218.355 34.6591C218.355 33.7614 218.505 32.9754 218.804 32.3011C219.107 31.6231 219.529 31.0966 220.071 30.7216C220.613 30.3428 221.243 30.1534 221.963 30.1534C222.493 30.1534 222.935 30.2481 223.287 30.4375C223.639 30.6231 223.921 30.8542 224.134 31.1307C224.346 31.4072 224.51 31.6761 224.628 31.9375H224.719V27.3636H225.736V39H224.747V37.3807H224.628C224.51 37.6458 224.344 37.9186 224.128 38.1989C223.912 38.4754 223.626 38.7083 223.27 38.8977C222.918 39.0871 222.476 39.1818 221.946 39.1818ZM222.065 38.2557C222.63 38.2557 223.111 38.1023 223.509 37.7955C223.906 37.4848 224.209 37.0587 224.418 36.517C224.63 35.9716 224.736 35.3466 224.736 34.642C224.736 33.9451 224.632 33.3295 224.423 32.7955C224.215 32.2576 223.912 31.8371 223.514 31.5341C223.116 31.2273 222.634 31.0739 222.065 31.0739C221.482 31.0739 220.99 31.233 220.588 31.5511C220.19 31.8655 219.887 32.2917 219.679 32.8295C219.474 33.3674 219.372 33.9716 219.372 34.642C219.372 35.3201 219.476 35.9318 219.685 36.4773C219.893 37.0227 220.196 37.4564 220.594 37.7784C220.995 38.0966 221.486 38.2557 222.065 38.2557ZM228.628 39V30.2727H229.645V39H228.628ZM229.145 28.7727C228.937 28.7727 228.759 28.7027 228.611 28.5625C228.463 28.4186 228.389 28.2462 228.389 28.0455C228.389 27.8447 228.463 27.6742 228.611 27.5341C228.759 27.3902 228.937 27.3182 229.145 27.3182C229.353 27.3182 229.531 27.3902 229.679 27.5341C229.827 27.6742 229.901 27.8447 229.901 28.0455C229.901 28.2462 229.827 28.4186 229.679 28.5625C229.531 28.7027 229.353 28.7727 229.145 28.7727ZM235.757 30.2727V31.1534H231.592V30.2727H235.757ZM232.893 28.1818H233.911V36.7216C233.911 37.0852 233.973 37.3712 234.098 37.5795C234.223 37.7841 234.386 37.9299 234.587 38.017C234.787 38.1004 235.001 38.142 235.229 38.142C235.361 38.142 235.475 38.1345 235.57 38.1193C235.664 38.1004 235.748 38.0814 235.82 38.0625L236.036 38.9773C235.937 39.0152 235.816 39.0492 235.672 39.0795C235.528 39.1136 235.35 39.1307 235.138 39.1307C234.767 39.1307 234.409 39.0492 234.064 38.8864C233.723 38.7235 233.443 38.4811 233.223 38.1591C233.003 37.8371 232.893 37.4375 232.893 36.9602V28.1818ZM244.991 39.1989C244.465 39.1989 243.984 39.0966 243.548 38.892C243.113 38.6837 242.766 38.3845 242.509 37.9943C242.251 37.6004 242.122 37.1231 242.122 36.5625C242.122 36.1307 242.204 35.767 242.366 35.4716C242.529 35.1761 242.76 34.9337 243.06 34.7443C243.359 34.5549 243.713 34.4053 244.122 34.2955C244.531 34.1856 244.982 34.1004 245.474 34.0398C245.963 33.9792 246.376 33.9261 246.713 33.8807C247.054 33.8352 247.313 33.7633 247.491 33.6648C247.67 33.5663 247.759 33.4072 247.759 33.1875V32.983C247.759 32.3883 247.58 31.9205 247.224 31.5795C246.872 31.2348 246.365 31.0625 245.702 31.0625C245.073 31.0625 244.56 31.2008 244.162 31.4773C243.768 31.7538 243.491 32.0795 243.332 32.4545L242.372 32.108C242.569 31.6307 242.842 31.25 243.19 30.9659C243.539 30.678 243.929 30.4716 244.361 30.3466C244.793 30.2178 245.23 30.1534 245.673 30.1534C246.007 30.1534 246.353 30.197 246.713 30.2841C247.077 30.3712 247.414 30.5227 247.724 30.7386C248.035 30.9508 248.287 31.2481 248.48 31.6307C248.673 32.0095 248.77 32.4905 248.77 33.0739V39H247.759V37.6193H247.696C247.575 37.8769 247.395 38.1269 247.156 38.3693C246.918 38.6117 246.618 38.8106 246.259 38.9659C245.899 39.1212 245.476 39.1989 244.991 39.1989ZM245.128 38.2727C245.666 38.2727 246.132 38.1534 246.526 37.9148C246.92 37.6761 247.223 37.3598 247.435 36.9659C247.651 36.5682 247.759 36.1307 247.759 35.6534V34.392C247.683 34.464 247.556 34.5284 247.378 34.5852C247.204 34.642 247.001 34.6932 246.77 34.7386C246.543 34.7803 246.315 34.8163 246.088 34.8466C245.861 34.8769 245.656 34.9034 245.474 34.9261C244.982 34.9867 244.562 35.0814 244.213 35.2102C243.865 35.339 243.598 35.517 243.412 35.7443C243.226 35.9678 243.134 36.2557 243.134 36.608C243.134 37.1383 243.323 37.5492 243.702 37.8409C244.08 38.1288 244.556 38.2727 245.128 38.2727ZM252.472 33.5455V39H251.46V30.2727H252.443V31.642H252.534C252.739 31.1951 253.057 30.8371 253.489 30.5682C253.924 30.2955 254.462 30.1591 255.102 30.1591C255.689 30.1591 256.205 30.2822 256.648 30.5284C257.095 30.7708 257.441 31.1288 257.688 31.6023C257.938 32.0758 258.062 32.6572 258.062 33.3466V39H257.051V33.4091C257.051 32.6932 256.85 32.1269 256.449 31.7102C256.051 31.2936 255.517 31.0852 254.847 31.0852C254.388 31.0852 253.981 31.1837 253.625 31.3807C253.269 31.5777 252.987 31.8617 252.778 32.233C252.574 32.6004 252.472 33.0379 252.472 33.5455ZM263.868 39.1818C263.152 39.1818 262.525 38.9924 261.987 38.6136C261.449 38.2348 261.029 37.7064 260.726 37.0284C260.427 36.3504 260.277 35.5606 260.277 34.6591C260.277 33.7614 260.427 32.9754 260.726 32.3011C261.029 31.6231 261.451 31.0966 261.993 30.7216C262.535 30.3428 263.165 30.1534 263.885 30.1534C264.415 30.1534 264.857 30.2481 265.209 30.4375C265.561 30.6231 265.843 30.8542 266.055 31.1307C266.268 31.4072 266.432 31.6761 266.55 31.9375H266.641V27.3636H267.658V39H266.669V37.3807H266.55C266.432 37.6458 266.266 37.9186 266.05 38.1989C265.834 38.4754 265.548 38.7083 265.192 38.8977C264.839 39.0871 264.398 39.1818 263.868 39.1818ZM263.987 38.2557C264.552 38.2557 265.033 38.1023 265.43 37.7955C265.828 37.4848 266.131 37.0587 266.339 36.517C266.552 35.9716 266.658 35.3466 266.658 34.642C266.658 33.9451 266.554 33.3295 266.345 32.7955C266.137 32.2576 265.834 31.8371 265.436 31.5341C265.038 31.2273 264.555 31.0739 263.987 31.0739C263.404 31.0739 262.911 31.233 262.51 31.5511C262.112 31.8655 261.809 32.2917 261.601 32.8295C261.396 33.3674 261.294 33.9716 261.294 34.642C261.294 35.3201 261.398 35.9318 261.607 36.4773C261.815 37.0227 262.118 37.4564 262.516 37.7784C262.917 38.0966 263.408 38.2557 263.987 38.2557ZM278.18 39.1818C277.464 39.1818 276.838 38.9924 276.3 38.6136C275.762 38.2348 275.341 37.7064 275.038 37.0284C274.739 36.3504 274.589 35.5606 274.589 34.6591C274.589 33.7614 274.739 32.9754 275.038 32.3011C275.341 31.6231 275.764 31.0966 276.305 30.7216C276.847 30.3428 277.478 30.1534 278.197 30.1534C278.728 30.1534 279.169 30.2481 279.521 30.4375C279.874 30.6231 280.156 30.8542 280.368 31.1307C280.58 31.4072 280.745 31.6761 280.862 31.9375H280.953V27.3636H281.97V39H280.982V37.3807H280.862C280.745 37.6458 280.578 37.9186 280.362 38.1989C280.146 38.4754 279.86 38.7083 279.504 38.8977C279.152 39.0871 278.711 39.1818 278.18 39.1818ZM278.3 38.2557C278.864 38.2557 279.345 38.1023 279.743 37.7955C280.141 37.4848 280.444 37.0587 280.652 36.517C280.864 35.9716 280.97 35.3466 280.97 34.642C280.97 33.9451 280.866 33.3295 280.658 32.7955C280.449 32.2576 280.146 31.8371 279.749 31.5341C279.351 31.2273 278.868 31.0739 278.3 31.0739C277.716 31.0739 277.224 31.233 276.822 31.5511C276.425 31.8655 276.122 32.2917 275.913 32.8295C275.709 33.3674 275.607 33.9716 275.607 34.642C275.607 35.3201 275.711 35.9318 275.919 36.4773C276.127 37.0227 276.43 37.4564 276.828 37.7784C277.23 38.0966 277.72 38.2557 278.3 38.2557ZM288.379 39.1818C287.565 39.1818 286.86 38.9924 286.266 38.6136C285.671 38.2311 285.211 37.7027 284.885 37.0284C284.563 36.3504 284.402 35.5701 284.402 34.6875C284.402 33.8087 284.563 33.0284 284.885 32.3466C285.211 31.661 285.66 31.125 286.232 30.7386C286.807 30.3485 287.472 30.1534 288.226 30.1534C288.699 30.1534 289.156 30.2405 289.595 30.4148C290.035 30.5852 290.429 30.8485 290.777 31.2045C291.129 31.5568 291.408 32.0019 291.612 32.5398C291.817 33.0739 291.919 33.7064 291.919 34.4375V34.9375H285.101V34.0455H290.885C290.885 33.4848 290.771 32.9811 290.544 32.5341C290.321 32.0833 290.008 31.7273 289.607 31.4659C289.209 31.2045 288.749 31.0739 288.226 31.0739C287.673 31.0739 287.186 31.2216 286.766 31.517C286.345 31.8125 286.016 32.2027 285.777 32.6875C285.542 33.1723 285.423 33.7027 285.419 34.2784V34.8125C285.419 35.5057 285.538 36.1117 285.777 36.6307C286.019 37.1458 286.362 37.5455 286.805 37.8295C287.249 38.1136 287.773 38.2557 288.379 38.2557C288.792 38.2557 289.154 38.1913 289.464 38.0625C289.779 37.9337 290.042 37.7614 290.254 37.5455C290.47 37.3258 290.633 37.0852 290.743 36.8239L291.703 37.1364C291.571 37.5038 291.353 37.8428 291.05 38.1534C290.75 38.464 290.375 38.714 289.925 38.9034C289.478 39.089 288.963 39.1818 288.379 39.1818ZM294.358 39V27.3636H295.375V31.9375H295.466C295.58 31.6761 295.742 31.4072 295.955 31.1307C296.17 30.8542 296.453 30.6231 296.801 30.4375C297.153 30.2481 297.597 30.1534 298.131 30.1534C298.847 30.1534 299.475 30.3428 300.017 30.7216C300.559 31.0966 300.981 31.6231 301.284 32.3011C301.587 32.9754 301.739 33.7614 301.739 34.6591C301.739 35.5606 301.587 36.3504 301.284 37.0284C300.985 37.7064 300.564 38.2348 300.023 38.6136C299.485 38.9924 298.86 39.1818 298.148 39.1818C297.617 39.1818 297.174 39.0871 296.818 38.8977C296.466 38.7083 296.182 38.4754 295.966 38.1989C295.75 37.9186 295.583 37.6458 295.466 37.3807H295.341V39H294.358ZM295.358 34.642C295.358 35.3466 295.462 35.9716 295.67 36.517C295.883 37.0587 296.186 37.4848 296.58 37.7955C296.977 38.1023 297.458 38.2557 298.023 38.2557C298.602 38.2557 299.093 38.0966 299.494 37.7784C299.896 37.4564 300.201 37.0227 300.409 36.4773C300.617 35.9318 300.722 35.3201 300.722 34.642C300.722 33.9716 300.617 33.3674 300.409 32.8295C300.205 32.2917 299.902 31.8655 299.5 31.5511C299.098 31.233 298.606 31.0739 298.023 31.0739C297.455 31.0739 296.972 31.2273 296.574 31.5341C296.18 31.8371 295.879 32.2576 295.67 32.7955C295.462 33.3295 295.358 33.9451 295.358 34.642ZM303.972 39V30.2727H304.989V39H303.972ZM304.489 28.7727C304.28 28.7727 304.102 28.7027 303.955 28.5625C303.807 28.4186 303.733 28.2462 303.733 28.0455C303.733 27.8447 303.807 27.6742 303.955 27.5341C304.102 27.3902 304.28 27.3182 304.489 27.3182C304.697 27.3182 304.875 27.3902 305.023 27.5341C305.17 27.6742 305.244 27.8447 305.244 28.0455C305.244 28.2462 305.17 28.4186 305.023 28.5625C304.875 28.7027 304.697 28.7727 304.489 28.7727ZM311.101 30.2727V31.1534H306.936V30.2727H311.101ZM308.237 28.1818H309.254V36.7216C309.254 37.0852 309.317 37.3712 309.442 37.5795C309.567 37.7841 309.73 37.9299 309.93 38.017C310.131 38.1004 310.345 38.142 310.572 38.142C310.705 38.142 310.819 38.1345 310.913 38.1193C311.008 38.1004 311.091 38.0814 311.163 38.0625L311.379 38.9773C311.281 39.0152 311.16 39.0492 311.016 39.0795C310.872 39.1136 310.694 39.1307 310.482 39.1307C310.11 39.1307 309.752 39.0492 309.408 38.8864C309.067 38.7235 308.786 38.4811 308.567 38.1591C308.347 37.8371 308.237 37.4375 308.237 36.9602V28.1818ZM321.307 39.1818C320.527 39.1818 319.847 38.9867 319.267 38.5966C318.691 38.2064 318.244 37.6723 317.926 36.9943C317.608 36.3163 317.449 35.5436 317.449 34.6761C317.449 33.8011 317.61 33.0227 317.932 32.3409C318.258 31.6591 318.708 31.125 319.284 30.7386C319.86 30.3485 320.528 30.1534 321.29 30.1534C321.873 30.1534 322.402 30.267 322.875 30.4943C323.348 30.7178 323.739 31.0341 324.045 31.4432C324.356 31.8485 324.551 32.322 324.631 32.8636H323.608C323.502 32.3712 323.246 31.9508 322.841 31.6023C322.439 31.25 321.928 31.0739 321.307 31.0739C320.75 31.0739 320.258 31.2254 319.83 31.5284C319.402 31.8277 319.066 32.2462 318.824 32.7841C318.585 33.3182 318.466 33.9375 318.466 34.642C318.466 35.3504 318.583 35.9773 318.818 36.5227C319.053 37.0644 319.383 37.4886 319.807 37.7955C320.235 38.1023 320.735 38.2557 321.307 38.2557C321.693 38.2557 322.045 38.1837 322.364 38.0398C322.686 37.892 322.955 37.6837 323.17 37.4148C323.39 37.1458 323.538 36.8258 323.614 36.4545H324.636C324.561 36.9811 324.373 37.4508 324.074 37.8636C323.778 38.2727 323.394 38.5947 322.92 38.8295C322.451 39.0644 321.913 39.1818 321.307 39.1818ZM329.241 39.1989C328.715 39.1989 328.234 39.0966 327.798 38.892C327.363 38.6837 327.016 38.3845 326.759 37.9943C326.501 37.6004 326.372 37.1231 326.372 36.5625C326.372 36.1307 326.454 35.767 326.616 35.4716C326.779 35.1761 327.01 34.9337 327.31 34.7443C327.609 34.5549 327.963 34.4053 328.372 34.2955C328.781 34.1856 329.232 34.1004 329.724 34.0398C330.213 33.9792 330.626 33.9261 330.963 33.8807C331.304 33.8352 331.563 33.7633 331.741 33.6648C331.92 33.5663 332.009 33.4072 332.009 33.1875V32.983C332.009 32.3883 331.83 31.9205 331.474 31.5795C331.122 31.2348 330.615 31.0625 329.952 31.0625C329.323 31.0625 328.81 31.2008 328.412 31.4773C328.018 31.7538 327.741 32.0795 327.582 32.4545L326.622 32.108C326.819 31.6307 327.092 31.25 327.44 30.9659C327.789 30.678 328.179 30.4716 328.611 30.3466C329.043 30.2178 329.48 30.1534 329.923 30.1534C330.257 30.1534 330.603 30.197 330.963 30.2841C331.327 30.3712 331.664 30.5227 331.974 30.7386C332.285 30.9508 332.537 31.2481 332.73 31.6307C332.923 32.0095 333.02 32.4905 333.02 33.0739V39H332.009V37.6193H331.946C331.825 37.8769 331.645 38.1269 331.406 38.3693C331.168 38.6117 330.868 38.8106 330.509 38.9659C330.149 39.1212 329.726 39.1989 329.241 39.1989ZM329.378 38.2727C329.916 38.2727 330.382 38.1534 330.776 37.9148C331.17 37.6761 331.473 37.3598 331.685 36.9659C331.901 36.5682 332.009 36.1307 332.009 35.6534V34.392C331.933 34.464 331.806 34.5284 331.628 34.5852C331.454 34.642 331.251 34.6932 331.02 34.7386C330.793 34.7803 330.565 34.8163 330.338 34.8466C330.111 34.8769 329.906 34.9034 329.724 34.9261C329.232 34.9867 328.812 35.0814 328.463 35.2102C328.115 35.339 327.848 35.517 327.662 35.7443C327.476 35.9678 327.384 36.2557 327.384 36.608C327.384 37.1383 327.573 37.5492 327.952 37.8409C328.33 38.1288 328.806 38.2727 329.378 38.2727ZM335.71 39V30.2727H336.693V31.6136H336.767C336.941 31.1742 337.244 30.8201 337.676 30.5511C338.112 30.2784 338.604 30.142 339.153 30.142C339.237 30.142 339.33 30.1439 339.432 30.1477C339.534 30.1515 339.619 30.1553 339.688 30.1591V31.1875C339.642 31.1799 339.563 31.1686 339.449 31.1534C339.335 31.1383 339.212 31.1307 339.08 31.1307C338.625 31.1307 338.22 31.2273 337.864 31.4205C337.511 31.6098 337.233 31.8731 337.028 32.2102C336.824 32.5473 336.722 32.9318 336.722 33.3636V39H335.71ZM344.29 39.1818C343.574 39.1818 342.947 38.9924 342.409 38.6136C341.871 38.2348 341.451 37.7064 341.148 37.0284C340.848 36.3504 340.699 35.5606 340.699 34.6591C340.699 33.7614 340.848 32.9754 341.148 32.3011C341.451 31.6231 341.873 31.0966 342.415 30.7216C342.956 30.3428 343.587 30.1534 344.307 30.1534C344.837 30.1534 345.278 30.2481 345.631 30.4375C345.983 30.6231 346.265 30.8542 346.477 31.1307C346.689 31.4072 346.854 31.6761 346.972 31.9375H347.062V27.3636H348.08V39H347.091V37.3807H346.972C346.854 37.6458 346.688 37.9186 346.472 38.1989C346.256 38.4754 345.97 38.7083 345.614 38.8977C345.261 39.0871 344.82 39.1818 344.29 39.1818ZM344.409 38.2557C344.973 38.2557 345.455 38.1023 345.852 37.7955C346.25 37.4848 346.553 37.0587 346.761 36.517C346.973 35.9716 347.08 35.3466 347.08 34.642C347.08 33.9451 346.975 33.3295 346.767 32.7955C346.559 32.2576 346.256 31.8371 345.858 31.5341C345.46 31.2273 344.977 31.0739 344.409 31.0739C343.826 31.0739 343.333 31.233 342.932 31.5511C342.534 31.8655 342.231 32.2917 342.023 32.8295C341.818 33.3674 341.716 33.9716 341.716 34.642C341.716 35.3201 341.82 35.9318 342.028 36.4773C342.237 37.0227 342.54 37.4564 342.938 37.7784C343.339 38.0966 343.83 38.2557 344.409 38.2557ZM356.824 32.1875L355.898 32.4489C355.807 32.1875 355.678 31.9508 355.511 31.7386C355.345 31.5265 355.127 31.358 354.858 31.233C354.593 31.108 354.263 31.0455 353.869 31.0455C353.278 31.0455 352.794 31.1856 352.415 31.4659C352.036 31.7462 351.847 32.108 351.847 32.5511C351.847 32.9261 351.975 33.2311 352.233 33.4659C352.494 33.697 352.896 33.8807 353.438 34.017L354.756 34.3409C355.487 34.5189 356.034 34.8011 356.398 35.1875C356.765 35.5739 356.949 36.0587 356.949 36.642C356.949 37.1345 356.813 37.572 356.54 37.9545C356.267 38.3371 355.886 38.6383 355.398 38.858C354.913 39.0739 354.35 39.1818 353.71 39.1818C352.858 39.1818 352.155 38.9905 351.602 38.608C351.049 38.2216 350.695 37.6648 350.54 36.9375L351.511 36.6989C351.636 37.2178 351.881 37.6098 352.244 37.875C352.612 38.1402 353.095 38.2727 353.693 38.2727C354.364 38.2727 354.9 38.1231 355.301 37.8239C355.703 37.5208 355.903 37.142 355.903 36.6875C355.903 36.3352 355.786 36.0398 355.551 35.8011C355.316 35.5587 354.96 35.3807 354.483 35.267L353.057 34.9261C352.299 34.7443 351.739 34.4564 351.375 34.0625C351.011 33.6686 350.83 33.1799 350.83 32.5966C350.83 32.1155 350.96 31.6932 351.222 31.3295C351.483 30.9621 351.843 30.6742 352.301 30.4659C352.759 30.2576 353.282 30.1534 353.869 30.1534C354.669 30.1534 355.307 30.3352 355.784 30.6989C356.265 31.0587 356.612 31.5549 356.824 32.1875ZM359.97 39.0852C359.747 39.0852 359.554 39.0057 359.391 38.8466C359.232 38.6837 359.152 38.4905 359.152 38.267C359.152 38.0398 359.232 37.8466 359.391 37.6875C359.554 37.5284 359.747 37.4489 359.97 37.4489C360.197 37.4489 360.391 37.5284 360.55 37.6875C360.709 37.8466 360.788 38.0398 360.788 38.267C360.788 38.4148 360.75 38.5511 360.675 38.6761C360.603 38.8011 360.504 38.9015 360.379 38.9773C360.258 39.0492 360.122 39.0852 359.97 39.0852Z" fill="#2D2D2D"/>
<g clip-path="url(#clip0_3277_56490)">
<path d="M420.739 30.0434H417.845V31.3333H420.633C421.811 31.3333 422.562 30.5132 422.562 29.3412C422.562 28.1692 421.919 27.5833 420.847 27.5833H419.559C419.239 27.5833 419.025 27.3492 419.025 26.9973C419.025 26.6453 419.239 26.4113 419.561 26.4113H422.027L422.562 25.1214H419.667C418.489 25.1214 417.739 25.9415 417.739 26.9973C417.739 28.1692 418.383 28.7552 419.453 28.7552H420.741C421.061 28.7552 421.275 28.9893 421.275 29.3412C421.383 29.8094 421.169 30.0434 420.739 30.0434ZM415.488 30.0434H412.594V31.3333H415.381C416.559 31.3333 417.309 30.5132 417.309 29.3412C417.309 28.1692 416.666 27.5833 415.595 27.5833H414.308C413.988 27.5833 413.773 27.3492 413.773 26.9973C413.773 26.6453 413.988 26.4113 414.309 26.4113H416.773L417.309 25.1214H414.416C413.238 25.1214 412.487 25.9415 412.487 26.9973C412.487 28.1692 413.131 28.7552 414.202 28.7552H415.489C415.809 28.7552 416.023 28.9893 416.023 29.3412C416.131 29.8094 415.809 30.0434 415.488 30.0434ZM411.736 26.2951V25.0052H407.234V31.2154H411.736V29.9272H408.522V28.6374H411.631V27.3492H408.522V26.1772H411.736V26.2951ZM404.448 26.2951C404.984 26.2951 405.198 26.6453 405.198 26.9973C405.198 27.3492 404.984 27.7011 404.448 27.7011H402.841V26.1772L404.448 26.2951ZM402.841 28.9893H403.484L405.198 31.2154H406.806L404.877 28.8714C405.842 28.6374 406.378 27.9352 406.378 26.9973C406.378 25.8253 405.627 25.0052 404.447 25.0052H401.447V31.2154H402.734L402.841 28.9893ZM399.411 27.1135C399.411 27.5833 399.197 27.9352 398.661 27.9352H396.945V26.2934H398.553C399.089 26.2934 399.411 26.6453 399.411 27.1135ZM395.659 25.0052V31.2154H396.947V29.1055H398.661C399.839 29.1055 400.697 28.2871 400.697 26.9973C400.697 25.8253 399.947 24.8874 398.767 24.8874L395.659 25.0052ZM393.73 31.2154H395.338L393.087 28.0514L395.338 25.0052H393.731L392.339 26.9973L390.945 25.0052H389.337L391.589 28.0514L389.337 31.0992H390.945L392.337 29.1072L393.73 31.2154ZM388.908 26.2934V25.0052H384.405V31.2154H388.906V29.9272H385.692V28.6374H388.8V27.3492H385.692V26.1772H388.908V26.2934ZM414.952 18.7934L417.203 22.5434H418.811V16.3333H417.524V20.4335L417.203 19.8475L415.167 16.3333H413.452V22.5434H414.739V18.3253L414.952 18.7934ZM409.378 18.6772L409.808 17.3874L410.236 18.6772L410.772 20.0833H408.842L409.378 18.6772ZM411.63 22.5434H413.022L410.558 16.3333H408.842L406.378 22.5434H407.77L408.306 21.2552H411.094L411.63 22.5434ZM405.627 22.5434L406.163 21.2552H405.842C404.877 21.2552 404.341 20.5514 404.341 19.4973V19.3794C404.341 18.3253 404.877 17.6214 405.842 17.6214H407.234V16.3333H405.734C404.02 16.3333 403.055 17.6214 403.055 19.3794V19.4973C403.055 21.3714 404.02 22.5434 405.627 22.5434ZM400.805 22.5434H402.091V16.4495H400.803L400.805 22.5434ZM398.017 17.6214C398.553 17.6214 398.767 17.9734 398.767 18.3253C398.767 18.6772 398.553 19.0291 398.019 19.0291H396.409V17.5036L398.017 17.6214ZM396.411 20.319H397.055L398.769 22.5451H400.377L398.447 20.1995C399.411 19.9654 399.947 19.2632 399.947 18.3253C399.947 17.1533 399.197 16.3333 398.017 16.3333H395.019V22.5434H396.305L396.411 20.319ZM394.053 17.6231V16.3349H389.552V22.5451H394.053V21.2569H390.837V19.967H393.947V18.6788H390.837V17.5036H394.053V17.6198V17.6231ZM384.3 22.5451H385.48L387.086 17.5069V22.5451H388.373V16.3333H386.23L384.942 20.5514L383.656 16.3333H381.511V22.5434H382.798V17.5052L384.298 22.5434L384.3 22.5451ZM377.331 18.6772L377.761 17.3874L378.189 18.6772L378.725 20.0833H376.795L377.331 18.6772ZM379.583 22.5434H380.975L378.511 16.3333H376.903L374.438 22.5434H375.83L376.367 21.2552H379.153L379.583 22.5434Z" fill="#2F6DC9"/>
</g>
<g clip-path="url(#clip1_3277_56490)">
<path d="M447.473 32.4094C452.687 32.4094 456.914 28.0645 456.914 22.7047C456.914 17.3449 452.687 13 447.473 13C442.258 13 438.031 17.3449 438.031 22.7047C438.031 28.0645 442.258 32.4094 447.473 32.4094Z" fill="#D82F2C"/>
<path d="M460.061 32.4094C465.276 32.4094 469.503 28.0645 469.503 22.7047C469.503 17.3449 465.276 13 460.061 13C454.847 13 450.62 17.3449 450.62 22.7047C450.62 28.0645 454.847 32.4094 460.061 32.4094Z" fill="#EAA33F"/>
<path fill-rule="evenodd" clip-rule="evenodd" d="M453.767 29.9387C455.698 28.1616 456.914 25.5792 456.914 22.705C456.914 19.8307 455.698 17.2484 453.767 15.4714C451.835 17.2484 450.62 19.8307 450.62 22.705C450.62 25.5792 451.835 28.1616 453.767 29.9387Z" fill="#ED6A2D"/>
</g>
<g clip-path="url(#clip2_3277_56490)">
<path d="M504.563 18.1941L499.987 29.3383H496.973L494.757 20.5232C494.739 20.314 494.668 20.1132 494.55 19.9402C494.433 19.7673 494.273 19.6282 494.087 19.5366C493.203 19.1071 492.272 18.7868 491.312 18.5823V18.2588H496.096C496.413 18.2626 496.718 18.38 496.957 18.5902C497.197 18.8004 497.355 19.0899 497.404 19.4072L498.584 25.8769L501.518 18.2911L504.563 18.1941ZM516.252 25.699C516.252 22.7714 512.265 22.6097 512.297 21.2834C512.297 20.8952 512.68 20.4585 513.493 20.3615C514.449 20.2633 515.414 20.431 516.283 20.8466L516.778 18.4852C515.929 18.1704 515.034 18.0063 514.131 18C511.34 18 509.347 19.5042 509.347 21.6877C509.347 23.3052 510.75 24.1786 511.819 24.7124C512.887 25.2461 513.286 25.6181 513.286 26.1034C513.286 26.8474 512.409 27.1709 511.595 27.1871C510.585 27.2141 509.585 26.9745 508.693 26.4916L508.135 28.9339C509.152 29.3307 510.234 29.5283 511.324 29.5162C514.29 29.5162 516.22 28.0281 516.236 25.699H516.252ZM523.602 29.3383H526.202L523.937 18.1941H521.545C521.285 18.1938 521.031 18.2722 520.815 18.4191C520.6 18.566 520.432 18.7749 520.334 19.019L516.108 29.3383H519.074L519.648 27.7208H523.268L523.602 29.3383ZM520.413 25.3917L521.912 21.2187L522.805 25.3755L520.413 25.3917ZM508.55 18.1941L506.222 29.3383H503.447L505.775 18.1941H508.55Z" fill="#1434CB"/>
</g>
<defs>
<clipPath id="clip0_3277_56490">
<rect x="371" y="3" width="55" height="40" rx="4" fill="white"/>
</clipPath>
<clipPath id="clip1_3277_56490">
<rect x="426" y="3" width="55" height="40" rx="4" fill="white"/>
</clipPath>
<clipPath id="clip2_3277_56490">
<rect x="481" y="3" width="55" height="40" rx="4" fill="white"/>
</clipPath>
</defs>
</svg>
