<svg width="155" height="44" viewBox="0 0 155 44" fill="none" xmlns="http://www.w3.org/2000/svg">
<path d="M20.4997 29.2147C24.6006 29.2147 27.9251 25.8902 27.9251 21.7892C27.9251 17.6882 24.6006 14.3638 20.4997 14.3638C16.3987 14.3638 13.0742 17.6882 13.0742 21.7892C13.0742 25.8902 16.3987 29.2147 20.4997 29.2147Z" fill="#AECDFB"/>
<path d="M20.4997 43.7704C20.4438 43.7704 20.3874 43.7606 20.332 43.7402C8.2712 39.3101 1.59957 28.0776 0.50093 10.3549C0.48634 10.118 0.644887 9.90499 0.875899 9.85101C6.38954 8.56902 11.2714 6.55751 15.3849 3.87194C15.6101 3.72506 15.9111 3.78829 16.058 4.01346C16.2049 4.23864 16.1416 4.54017 15.9165 4.68656C11.8079 7.36873 6.95856 9.39239 1.49793 10.7036C2.65736 28.0056 8.93019 38.5164 20.667 42.8278C20.9195 42.9202 21.0483 43.1999 20.9559 43.4518C20.884 43.6483 20.6977 43.7704 20.4997 43.7704Z" fill="#0C0C0C"/>
<path d="M20.5 43.7703C20.4018 43.7703 20.3045 43.7402 20.2218 43.6828C20.0915 43.5919 20.0137 43.443 20.0137 43.284V31.5272C20.0137 31.2583 20.2316 31.0409 20.5 31.0409C20.7685 31.0409 20.9864 31.2583 20.9864 31.5272V42.5788C32.302 38.12 38.3638 27.6807 39.5013 10.7036C32.0739 8.92063 25.8532 5.85571 20.9864 1.5832V8.24947C20.9864 8.51793 20.7685 8.73582 20.5 8.73582C20.2316 8.73582 20.0137 8.51793 20.0137 8.24947V0.486018C20.0137 0.292455 20.1284 0.116886 20.3064 0.0400437C20.4845 -0.0367982 20.6911 -0.00129529 20.8322 0.131476C25.771 4.75317 32.2612 8.02381 40.1239 9.85148C40.3554 9.90547 40.5139 10.1185 40.4988 10.3553C39.4002 28.0776 32.7286 39.3106 20.6678 43.7402C20.6133 43.7601 20.5564 43.7703 20.5 43.7703Z" fill="#0C0C0C"/>
<path d="M20.4996 32.0135C18.1223 32.0135 15.8112 31.1741 13.9909 29.6509C13.7851 29.4787 13.7579 29.1719 13.9301 28.9661C14.1022 28.7599 14.4086 28.7322 14.6153 28.9053C16.2606 30.2827 18.3504 31.0414 20.4996 31.0414C25.5565 31.0414 29.6705 26.9274 29.6705 21.8704C29.6705 16.8135 25.5565 12.6985 20.4996 12.6985C15.4426 12.6985 11.3282 16.8125 11.3282 21.8699C11.3282 22.1384 11.1103 22.3563 10.8418 22.3563C10.5733 22.3563 10.3555 22.1384 10.3555 21.8699C10.3555 16.2765 14.9062 11.7258 20.4996 11.7258C26.093 11.7258 30.6432 16.2765 30.6432 21.8699C30.6432 27.4633 26.093 32.0135 20.4996 32.0135Z" fill="#0C0C0C"/>
<path d="M19.8768 25.6152C19.7372 25.6152 19.604 25.5548 19.5121 25.4503L16.3499 21.8567C16.1724 21.6549 16.1918 21.348 16.3936 21.1705C16.5955 20.9925 16.9028 21.0129 17.0799 21.2143L19.8744 24.3891L25.2056 18.2286C25.3807 18.0253 25.6886 18.0039 25.8914 18.179C26.0947 18.3551 26.1166 18.6619 25.941 18.8652L20.2445 25.4469C20.1526 25.5534 20.0193 25.6147 19.8788 25.6152C19.8783 25.6152 19.8773 25.6152 19.8768 25.6152Z" fill="#0C0C0C"/>
<path d="M68.4957 18.8852C68.3632 18.4022 68.169 17.95 67.9134 17.5286C67.6577 17.1025 67.3404 16.7308 66.9616 16.4136C66.5876 16.0916 66.1544 15.8407 65.6619 15.6607C65.1742 15.4808 64.6297 15.3909 64.0284 15.3909C63.0814 15.3909 62.2339 15.6371 61.4858 16.1295C60.7377 16.6219 60.1458 17.3321 59.7102 18.2602C59.2794 19.1882 59.0639 20.3056 59.0639 21.6125C59.0639 22.9145 59.2817 24.0296 59.7173 24.9576C60.1529 25.8857 60.7495 26.5982 61.5071 27.0954C62.2694 27.5878 63.1406 27.834 64.1207 27.834C65.0156 27.834 65.8063 27.6352 66.4929 27.2375C67.1795 26.8397 67.7145 26.2715 68.098 25.5329C68.4863 24.7943 68.6757 23.916 68.6662 22.898L69.0923 23.0329H64.4332V21.8397H69.9588V23.0329C69.9588 24.2734 69.7079 25.3459 69.206 26.2502C68.7041 27.1546 68.0152 27.853 67.1392 28.3454C66.2633 28.8378 65.2571 29.084 64.1207 29.084C62.8518 29.084 61.7415 28.7786 60.7898 28.1678C59.8381 27.5523 59.0971 26.6858 58.5668 25.5684C58.0412 24.4463 57.7784 23.1276 57.7784 21.6125C57.7784 20.4714 57.9299 19.4415 58.233 18.523C58.536 17.6044 58.9645 16.8184 59.5185 16.165C60.0772 15.5116 60.7377 15.0121 61.5 14.6664C62.2623 14.316 63.1051 14.1409 64.0284 14.1409C64.8239 14.1409 65.5507 14.2663 66.2088 14.5173C66.8717 14.7682 67.4541 15.1139 67.956 15.5542C68.4626 15.9898 68.8769 16.4941 69.1989 17.067C69.5256 17.6352 69.7457 18.2412 69.8594 18.8852H68.4957ZM79.9251 24.7161V17.9761H81.1893V28.8852H79.9251V27.0741H79.8256C79.57 27.6328 79.1651 28.0992 78.6112 28.4732C78.0572 28.8426 77.3801 29.0272 76.5799 29.0272C75.8839 29.0272 75.266 28.8757 74.7262 28.5727C74.1864 28.2649 73.7627 27.8151 73.4549 27.2232C73.1471 26.6314 72.9933 25.9046 72.9933 25.0428V17.9761H74.2575V24.9647C74.2575 25.817 74.5084 26.5035 75.0103 27.0244C75.5122 27.5405 76.1561 27.7985 76.9421 27.7985C77.4345 27.7985 77.908 27.6802 78.3626 27.4434C78.8171 27.2067 79.1912 26.861 79.4847 26.4065C79.7783 25.9472 79.9251 25.3838 79.9251 24.7161ZM87.5831 29.1338C86.925 29.1338 86.3236 29.0059 85.7791 28.7502C85.2346 28.4898 84.8014 28.1158 84.4794 27.6281C84.1574 27.1357 83.9964 26.5391 83.9964 25.8383C83.9964 25.2985 84.0982 24.844 84.3018 24.4747C84.5054 24.1053 84.7943 23.8023 85.1683 23.5656C85.5424 23.3288 85.9851 23.1418 86.4964 23.0045C87.0078 22.8672 87.5713 22.7607 88.1868 22.6849C88.7976 22.6091 89.3137 22.5428 89.7351 22.486C90.1612 22.4292 90.4856 22.3392 90.7081 22.2161C90.9306 22.093 91.0419 21.8942 91.0419 21.6196V21.3639C91.0419 20.6205 90.8194 20.0357 90.3743 19.6096C89.9339 19.1787 89.2995 18.9633 88.4709 18.9633C87.6849 18.9633 87.0433 19.1361 86.5462 19.4818C86.0537 19.8274 85.7081 20.2346 85.5092 20.7034L84.3089 20.2701C84.5552 19.6735 84.8961 19.1977 85.3317 18.8426C85.7673 18.4827 86.255 18.2247 86.7947 18.0684C87.3345 17.9074 87.8814 17.8269 88.4354 17.8269C88.852 17.8269 89.2853 17.8814 89.7351 17.9903C90.1896 18.0992 90.611 18.2886 90.9993 18.5585C91.3875 18.8236 91.7024 19.1953 91.9439 19.6735C92.1854 20.147 92.3061 20.7483 92.3061 21.4775V28.8852H91.0419V27.1593H90.9638C90.8123 27.4813 90.5874 27.7938 90.2891 28.0968C89.9908 28.3999 89.6167 28.6484 89.1669 28.8426C88.7171 29.0367 88.1892 29.1338 87.5831 29.1338ZM87.7536 27.9761C88.4259 27.9761 89.0083 27.8269 89.5007 27.5286C89.9931 27.2303 90.3719 26.835 90.6371 26.3426C90.907 25.8454 91.0419 25.2985 91.0419 24.7019V23.1252C90.9472 23.2152 90.7886 23.2957 90.5661 23.3667C90.3482 23.4377 90.0949 23.5017 89.8061 23.5585C89.522 23.6106 89.2379 23.6555 88.9538 23.6934C88.6697 23.7313 88.4141 23.7644 88.1868 23.7928C87.5713 23.8686 87.0457 23.987 86.6101 24.148C86.1745 24.3089 85.8407 24.5315 85.6087 24.8156C85.3767 25.0949 85.2607 25.4548 85.2607 25.8951C85.2607 26.558 85.4974 27.0717 85.9709 27.4363C86.4444 27.7962 87.0386 27.9761 87.7536 27.9761ZM95.669 28.8852V17.9761H96.8977V19.6522H96.9901C97.2079 19.103 97.5866 18.6603 98.1264 18.3241C98.6709 17.9832 99.2865 17.8127 99.973 17.8127C100.077 17.8127 100.193 17.8151 100.321 17.8198C100.449 17.8246 100.555 17.8293 100.641 17.834V19.1196C100.584 19.1101 100.484 19.0959 100.342 19.0769C100.2 19.058 100.046 19.0485 99.8807 19.0485C99.3125 19.0485 98.8059 19.1693 98.3608 19.4107C97.9205 19.6475 97.5724 19.9766 97.3168 20.398C97.0611 20.8194 96.9332 21.3 96.9332 21.8397V28.8852H95.669ZM105.845 29.1338C105.187 29.1338 104.585 29.0059 104.041 28.7502C103.496 28.4898 103.063 28.1158 102.741 27.6281C102.419 27.1357 102.258 26.5391 102.258 25.8383C102.258 25.2985 102.36 24.844 102.564 24.4747C102.767 24.1053 103.056 23.8023 103.43 23.5656C103.804 23.3288 104.247 23.1418 104.758 23.0045C105.27 22.8672 105.833 22.7607 106.449 22.6849C107.059 22.6091 107.575 22.5428 107.997 22.486C108.423 22.4292 108.747 22.3392 108.97 22.2161C109.192 22.093 109.304 21.8942 109.304 21.6196V21.3639C109.304 20.6205 109.081 20.0357 108.636 19.6096C108.196 19.1787 107.561 18.9633 106.733 18.9633C105.947 18.9633 105.305 19.1361 104.808 19.4818C104.315 19.8274 103.97 20.2346 103.771 20.7034L102.571 20.2701C102.817 19.6735 103.158 19.1977 103.593 18.8426C104.029 18.4827 104.517 18.2247 105.056 18.0684C105.596 17.9074 106.143 17.8269 106.697 17.8269C107.114 17.8269 107.547 17.8814 107.997 17.9903C108.451 18.0992 108.873 18.2886 109.261 18.5585C109.649 18.8236 109.964 19.1953 110.206 19.6735C110.447 20.147 110.568 20.7483 110.568 21.4775V28.8852H109.304V27.1593H109.225C109.074 27.4813 108.849 27.7938 108.551 28.0968C108.252 28.3999 107.878 28.6484 107.429 28.8426C106.979 29.0367 106.451 29.1338 105.845 29.1338ZM106.015 27.9761C106.688 27.9761 107.27 27.8269 107.762 27.5286C108.255 27.2303 108.634 26.835 108.899 26.3426C109.169 25.8454 109.304 25.2985 109.304 24.7019V23.1252C109.209 23.2152 109.05 23.2957 108.828 23.3667C108.61 23.4377 108.357 23.5017 108.068 23.5585C107.784 23.6106 107.5 23.6555 107.216 23.6934C106.931 23.7313 106.676 23.7644 106.449 23.7928C105.833 23.8686 105.307 23.987 104.872 24.148C104.436 24.3089 104.102 24.5315 103.87 24.8156C103.638 25.0949 103.522 25.4548 103.522 25.8951C103.522 26.558 103.759 27.0717 104.233 27.4363C104.706 27.7962 105.3 27.9761 106.015 27.9761ZM115.195 22.067V28.8852H113.931V17.9761H115.159V19.6877H115.273C115.529 19.129 115.926 18.6816 116.466 18.3454C117.011 18.0045 117.683 17.834 118.483 17.834C119.217 17.834 119.861 17.9879 120.415 18.2957C120.974 18.5987 121.407 19.0462 121.715 19.638C122.027 20.2299 122.184 20.9567 122.184 21.8184V28.8852H120.919V21.8965C120.919 21.0017 120.668 20.2938 120.167 19.773C119.669 19.2521 119.002 18.9917 118.164 18.9917C117.591 18.9917 117.082 19.1148 116.637 19.361C116.192 19.6072 115.839 19.9624 115.578 20.4264C115.323 20.8857 115.195 21.4325 115.195 22.067ZM129.81 17.9761V19.0769H124.604V17.9761H129.81ZM126.23 15.3625H127.501V26.0372C127.501 26.4917 127.58 26.8492 127.736 27.1096C127.892 27.3653 128.096 27.5476 128.347 27.6565C128.598 27.7607 128.865 27.8127 129.149 27.8127C129.315 27.8127 129.457 27.8033 129.575 27.7843C129.694 27.7607 129.798 27.737 129.888 27.7133L130.158 28.8568C130.035 28.9041 129.883 28.9467 129.703 28.9846C129.523 29.0272 129.301 29.0485 129.036 29.0485C128.571 29.0485 128.124 28.9467 127.693 28.7431C127.267 28.5395 126.917 28.2365 126.642 27.834C126.367 27.4316 126.23 26.9321 126.23 26.3355V15.3625ZM136.974 29.1125C135.956 29.1125 135.075 28.8757 134.332 28.4022C133.589 27.924 133.013 27.2635 132.606 26.4207C132.204 25.5732 132.002 24.5978 132.002 23.4946C132.002 22.3961 132.204 21.4207 132.606 20.5684C133.013 19.7114 133.574 19.0414 134.289 18.5585C135.009 18.0708 135.84 17.8269 136.782 17.8269C137.374 17.8269 137.945 17.9358 138.494 18.1536C139.043 18.3667 139.536 18.6958 139.971 19.1409C140.412 19.5812 140.76 20.1375 141.015 20.8099C141.271 21.4775 141.399 22.2682 141.399 23.1821V23.8071H132.876V22.692H140.106C140.106 21.9912 139.964 21.3615 139.68 20.8028C139.401 20.2393 139.01 19.7943 138.508 19.4676C138.011 19.1409 137.436 18.9775 136.782 18.9775C136.091 18.9775 135.483 19.1622 134.957 19.5315C134.431 19.9008 134.02 20.3885 133.721 20.9946C133.428 21.6006 133.279 22.2635 133.274 22.9832V23.6508C133.274 24.5173 133.423 25.2749 133.721 25.9235C134.024 26.5675 134.453 27.067 135.007 27.4221C135.561 27.7772 136.217 27.9548 136.974 27.9548C137.49 27.9548 137.942 27.8743 138.331 27.7133C138.724 27.5523 139.053 27.3369 139.318 27.067C139.588 26.7924 139.791 26.4917 139.929 26.165L141.129 26.5556C140.963 27.0149 140.691 27.4387 140.312 27.8269C139.938 28.2152 139.469 28.5277 138.906 28.7644C138.347 28.9964 137.703 29.1125 136.974 29.1125ZM148.595 29.1125C147.577 29.1125 146.696 28.8757 145.953 28.4022C145.21 27.924 144.634 27.2635 144.227 26.4207C143.825 25.5732 143.624 24.5978 143.624 23.4946C143.624 22.3961 143.825 21.4207 144.227 20.5684C144.634 19.7114 145.196 19.0414 145.911 18.5585C146.63 18.0708 147.461 17.8269 148.403 17.8269C148.995 17.8269 149.566 17.9358 150.115 18.1536C150.664 18.3667 151.157 18.6958 151.592 19.1409C152.033 19.5812 152.381 20.1375 152.636 20.8099C152.892 21.4775 153.02 22.2682 153.02 23.1821V23.8071H144.497V22.692H151.727C151.727 21.9912 151.585 21.3615 151.301 20.8028C151.022 20.2393 150.631 19.7943 150.129 19.4676C149.632 19.1409 149.057 18.9775 148.403 18.9775C147.712 18.9775 147.104 19.1622 146.578 19.5315C146.053 19.9008 145.641 20.3885 145.342 20.9946C145.049 21.6006 144.9 22.2635 144.895 22.9832V23.6508C144.895 24.5173 145.044 25.2749 145.342 25.9235C145.645 26.5675 146.074 27.067 146.628 27.4221C147.182 27.7772 147.838 27.9548 148.595 27.9548C149.111 27.9548 149.563 27.8743 149.952 27.7133C150.345 27.5523 150.674 27.3369 150.939 27.067C151.209 26.7924 151.412 26.4917 151.55 26.165L152.75 26.5556C152.584 27.0149 152.312 27.4387 151.933 27.8269C151.559 28.2152 151.09 28.5277 150.527 28.7644C149.968 28.9964 149.324 29.1125 148.595 29.1125Z" fill="#0C0C0C"/>
</svg>
