<svg width="317" height="31" viewBox="0 0 317 31" fill="none" xmlns="http://www.w3.org/2000/svg">
<path d="M42.7832 3.44376H16.0254V23.4704H42.7832V3.44376Z" fill="#AECDFB"/>
<path d="M45.5398 26.9149H30.7356C30.3554 26.9149 30.0467 26.6069 30.0467 26.226C30.0467 25.845 30.3554 25.5371 30.7356 25.5371H44.851V1.37778H13.9598V3.8006C13.9598 4.18087 13.6512 4.48949 13.2709 4.48949C12.8907 4.48949 12.582 4.18087 12.582 3.8006V0.688889C12.582 0.308622 12.8907 0 13.2709 0H45.5398C45.9208 0 46.2287 0.308622 46.2287 0.688889V26.226C46.2287 26.6063 45.9208 26.9149 45.5398 26.9149Z" fill="#0C0C0C"/>
<path d="M19.0714 26.9149H13.2709C12.8907 26.9149 12.582 26.607 12.582 26.226V22.7561C12.582 22.3751 12.8907 22.0672 13.2709 22.0672C13.6512 22.0672 13.9598 22.3751 13.9598 22.7561V25.5371H19.0714C19.4516 25.5371 19.7603 25.845 19.7603 26.226C19.7603 26.607 19.4516 26.9149 19.0714 26.9149Z" fill="#0C0C0C"/>
<path d="M61.3106 26.9149C60.9317 26.9149 60.6245 26.6097 60.6217 26.2308L60.5563 16.492L53.4938 9.07887H46.2274V25.5371H50.1437C50.5247 25.5371 50.8326 25.845 50.8326 26.226C50.8326 26.607 50.5247 26.9149 50.1437 26.9149H45.5385C45.1575 26.9149 44.8496 26.607 44.8496 26.226V8.38998C44.8496 8.00972 45.1575 7.7011 45.5385 7.7011H53.7893C53.9774 7.7011 54.1579 7.77825 54.2881 7.91465L61.7418 15.739C61.8631 15.8665 61.9306 16.0346 61.932 16.2096L61.9995 26.2212C62.0022 26.6021 61.6957 26.9121 61.3154 26.9149C61.314 26.9149 61.312 26.9149 61.3106 26.9149Z" fill="#0C0C0C"/>
<path d="M55.7254 16.9026H49.894C49.513 16.9026 49.2051 16.5946 49.2051 16.2137V8.38998C49.2051 8.00972 49.513 7.7011 49.894 7.7011C50.2749 7.7011 50.5829 8.00972 50.5829 8.38998V15.5255H55.7254C56.1064 15.5255 56.4143 15.8341 56.4143 16.2144C56.4143 16.5946 56.1057 16.9026 55.7254 16.9026Z" fill="#0C0C0C"/>
<path d="M22.7153 30.5598C20.3256 30.5598 18.3809 28.6158 18.3809 26.226C18.3809 23.8362 20.3249 21.8922 22.7153 21.8922C25.1051 21.8922 27.0491 23.8362 27.0491 26.226C27.0491 28.6158 25.1044 30.5598 22.7153 30.5598ZM22.7153 23.27C21.0854 23.27 19.7586 24.5961 19.7586 26.226C19.7586 27.8559 21.0847 29.182 22.7153 29.182C24.3459 29.182 25.6714 27.8559 25.6714 26.226C25.6714 24.5961 24.3453 23.27 22.7153 23.27Z" fill="#0C0C0C"/>
<path d="M53.7896 30.5598C51.3991 30.5598 49.4551 28.6158 49.4551 26.226C49.4551 23.8362 51.3991 21.8922 53.7896 21.8922C56.1793 21.8922 58.1234 23.8362 58.1234 26.226C58.1234 28.6158 56.1793 30.5598 53.7896 30.5598ZM53.7896 23.27C52.1597 23.27 50.8329 24.5961 50.8329 26.226C50.8329 27.8559 52.1597 29.182 53.7896 29.182C55.4195 29.182 56.7456 27.8559 56.7456 26.226C56.7456 24.5961 55.4195 23.27 53.7896 23.27Z" fill="#0C0C0C"/>
<path d="M29.4045 14.1456H0.688889C0.308622 14.1456 0 13.837 0 13.4568C0 13.0765 0.308622 12.7679 0.688889 12.7679H29.4045C29.7848 12.7679 30.0934 13.0765 30.0934 13.4568C30.0934 13.837 29.7848 14.1456 29.4045 14.1456Z" fill="#0C0C0C"/>
<path d="M29.405 8.31351H7.9799C7.59964 8.31351 7.29102 8.00489 7.29102 7.62462C7.29102 7.24435 7.59964 6.93573 7.9799 6.93573H29.4057C29.786 6.93573 30.0946 7.24435 30.0946 7.62462C30.0946 8.00489 29.7853 8.31351 29.405 8.31351Z" fill="#0C0C0C"/>
<path d="M29.405 19.9778H7.9799C7.59964 19.9778 7.29102 19.6699 7.29102 19.2889C7.29102 18.9079 7.59964 18.6 7.9799 18.6H29.4057C29.786 18.6 30.0946 18.9079 30.0946 19.2889C30.0946 19.6699 29.7853 19.9778 29.405 19.9778Z" fill="#0C0C0C"/>
<path d="M79.9318 22.2799V7.73444H88.348V8.92762H81.2599V14.4035H87.6875V15.5967H81.2599V22.2799H79.9318ZM91.2706 22.2799V11.3708H92.4993V13.0469H92.5916C92.8094 12.4977 93.1882 12.055 93.728 11.7188C94.2725 11.3779 94.888 11.2074 95.5746 11.2074C95.6787 11.2074 95.7947 11.2098 95.9226 11.2146C96.0504 11.2193 96.157 11.224 96.2422 11.2288V12.5143C96.1854 12.5048 96.0859 12.4906 95.9439 12.4717C95.8018 12.4527 95.648 12.4432 95.4822 12.4432C94.9141 12.4432 94.4074 12.564 93.9624 12.8055C93.522 13.0422 93.174 13.3713 92.9183 13.7927C92.6626 14.2141 92.5348 14.6947 92.5348 15.2344V22.2799H91.2706ZM102.478 22.5072C101.46 22.5072 100.579 22.2704 99.8359 21.7969C99.0926 21.3187 98.5173 20.6582 98.1101 19.8154C97.7076 18.9679 97.5064 17.9925 97.5064 16.8893C97.5064 15.7908 97.7076 14.8154 98.1101 13.9631C98.5173 13.1061 99.0784 12.4361 99.7933 11.9532C100.513 11.4655 101.344 11.2217 102.286 11.2217C102.878 11.2217 103.449 11.3306 103.998 11.5484C104.547 11.7614 105.04 12.0905 105.475 12.5356C105.915 12.9759 106.263 13.5323 106.519 14.2046C106.775 14.8722 106.903 15.6629 106.903 16.5768V17.2018H98.38V16.0867H105.61C105.61 15.386 105.468 14.7562 105.184 14.1975C104.905 13.6341 104.514 13.189 104.012 12.8623C103.515 12.5356 102.94 12.3722 102.286 12.3722C101.595 12.3722 100.987 12.5569 100.461 12.9262C99.9354 13.2955 99.5234 13.7832 99.2251 14.3893C98.9316 14.9953 98.7824 15.6582 98.7777 16.3779V17.0455C98.7777 17.912 98.9268 18.6696 99.2251 19.3182C99.5282 19.9622 99.9567 20.4617 100.511 20.8168C101.065 21.1719 101.72 21.3495 102.478 21.3495C102.994 21.3495 103.446 21.269 103.835 21.108C104.228 20.947 104.557 20.7316 104.822 20.4617C105.092 20.1871 105.295 19.8864 105.433 19.5597L106.633 19.9503C106.467 20.4096 106.195 20.8334 105.816 21.2217C105.442 21.6099 104.973 21.9224 104.41 22.1592C103.851 22.3912 103.207 22.5072 102.478 22.5072ZM114.099 22.5072C113.081 22.5072 112.2 22.2704 111.457 21.7969C110.714 21.3187 110.138 20.6582 109.731 19.8154C109.329 18.9679 109.127 17.9925 109.127 16.8893C109.127 15.7908 109.329 14.8154 109.731 13.9631C110.138 13.1061 110.699 12.4361 111.414 11.9532C112.134 11.4655 112.965 11.2217 113.907 11.2217C114.499 11.2217 115.07 11.3306 115.619 11.5484C116.168 11.7614 116.661 12.0905 117.096 12.5356C117.537 12.9759 117.885 13.5323 118.14 14.2046C118.396 14.8722 118.524 15.6629 118.524 16.5768V17.2018H110.001V16.0867H117.231C117.231 15.386 117.089 14.7562 116.805 14.1975C116.526 13.6341 116.135 13.189 115.633 12.8623C115.136 12.5356 114.561 12.3722 113.907 12.3722C113.216 12.3722 112.608 12.5569 112.082 12.9262C111.556 13.2955 111.145 13.7832 110.846 14.3893C110.553 14.9953 110.404 15.6582 110.399 16.3779V17.0455C110.399 17.912 110.548 18.6696 110.846 19.3182C111.149 19.9622 111.578 20.4617 112.132 20.8168C112.686 21.1719 113.342 21.3495 114.099 21.3495C114.615 21.3495 115.067 21.269 115.456 21.108C115.849 20.947 116.178 20.7316 116.443 20.4617C116.713 20.1871 116.916 19.8864 117.054 19.5597L118.254 19.9503C118.088 20.4096 117.816 20.8334 117.437 21.2217C117.063 21.6099 116.594 21.9224 116.031 22.1592C115.472 22.3912 114.828 22.5072 114.099 22.5072ZM135.095 11.3708C135.015 10.5611 134.657 9.9172 134.023 9.43898C133.388 8.96076 132.59 8.72165 131.629 8.72165C130.952 8.72165 130.356 8.83766 129.839 9.06966C129.328 9.30167 128.926 9.62364 128.632 10.0356C128.343 10.4428 128.199 10.9068 128.199 11.4276C128.199 11.8111 128.282 12.1473 128.447 12.4361C128.613 12.725 128.836 12.9735 129.115 13.1819C129.399 13.3855 129.712 13.5607 130.053 13.7074C130.398 13.8542 130.746 13.9773 131.097 14.0768L132.631 14.5171C133.095 14.6449 133.559 14.8083 134.023 15.0072C134.487 15.206 134.911 15.457 135.294 15.76C135.682 16.0583 135.992 16.4253 136.224 16.8609C136.461 17.2917 136.58 17.8102 136.58 18.4163C136.58 19.1928 136.378 19.8912 135.976 20.5114C135.573 21.1317 134.996 21.6241 134.243 21.9887C133.49 22.3485 132.588 22.5285 131.537 22.5285C130.547 22.5285 129.688 22.3651 128.959 22.0384C128.23 21.707 127.657 21.2501 127.24 20.6677C126.823 20.0853 126.589 19.4106 126.537 18.6435H127.901C127.948 19.2164 128.137 19.7018 128.469 20.0995C128.8 20.4972 129.231 20.8003 129.761 21.0086C130.292 21.2122 130.884 21.314 131.537 21.314C132.261 21.314 132.905 21.1932 133.469 20.9518C134.037 20.7056 134.482 20.3646 134.804 19.929C135.131 19.4887 135.294 18.9773 135.294 18.3949C135.294 17.9025 135.166 17.4906 134.911 17.1592C134.655 16.823 134.297 16.5413 133.838 16.314C133.384 16.0867 132.856 15.8855 132.254 15.7103L130.514 15.1989C129.373 14.858 128.488 14.3869 127.858 13.7856C127.228 13.1842 126.913 12.4172 126.913 11.4844C126.913 10.7032 127.122 10.0166 127.538 9.42478C127.96 8.82819 128.528 8.36417 129.243 8.03273C129.963 7.69656 130.77 7.52847 131.665 7.52847C132.569 7.52847 133.369 7.69419 134.065 8.02563C134.761 8.35707 135.313 8.81398 135.72 9.39637C136.132 9.97402 136.352 10.6322 136.381 11.3708H135.095ZM140.777 15.4617V22.2799H139.513V7.73444H140.777V13.0824H140.891C141.146 12.519 141.542 12.0692 142.077 11.733C142.616 11.3968 143.298 11.2288 144.122 11.2288C144.861 11.2288 145.509 11.3803 146.068 11.6833C146.627 11.9863 147.062 12.4338 147.375 13.0256C147.688 13.6175 147.844 14.3467 147.844 15.2131V22.2799H146.572V15.2913C146.572 14.3916 146.321 13.6838 145.82 13.1677C145.322 12.6468 144.65 12.3864 143.803 12.3864C143.22 12.3864 142.702 12.5095 142.247 12.7557C141.793 13.002 141.433 13.3571 141.168 13.8211C140.907 14.2804 140.777 14.8272 140.777 15.4617ZM151.187 22.2799V11.3708H152.458V22.2799H151.187ZM151.833 9.4958C151.573 9.4958 151.35 9.40821 151.166 9.23302C150.981 9.05309 150.889 8.83766 150.889 8.58671C150.889 8.33576 150.981 8.12269 151.166 7.94751C151.35 7.76758 151.573 7.67762 151.833 7.67762C152.094 7.67762 152.316 7.76758 152.501 7.94751C152.686 8.12269 152.778 8.33576 152.778 8.58671C152.778 8.83766 152.686 9.05309 152.501 9.23302C152.316 9.40821 152.094 9.4958 151.833 9.4958ZM155.802 26.3708V11.3708H157.031V13.4518H157.18C157.331 13.1251 157.54 12.7913 157.805 12.4503C158.07 12.1047 158.42 11.8135 158.856 11.5768C159.296 11.34 159.85 11.2217 160.518 11.2217C161.417 11.2217 162.203 11.4584 162.876 11.9319C163.553 12.4006 164.078 13.0588 164.452 13.9063C164.831 14.7491 165.021 15.7316 165.021 16.8538C165.021 17.9806 164.831 18.9679 164.452 19.8154C164.078 20.6629 163.553 21.3235 162.876 21.7969C162.203 22.2704 161.422 22.5072 160.532 22.5072C159.874 22.5072 159.322 22.3888 158.877 22.1521C158.437 21.9153 158.079 21.6241 157.805 21.2785C157.535 20.9281 157.326 20.5872 157.18 20.2557H157.066V26.3708H155.802ZM157.052 16.8324C157.052 17.7131 157.182 18.4944 157.442 19.1762C157.708 19.8533 158.086 20.386 158.579 20.7742C159.076 21.1577 159.677 21.3495 160.383 21.3495C161.107 21.3495 161.718 21.1506 162.215 20.7529C162.717 20.3504 163.098 19.8083 163.359 19.1265C163.624 18.4447 163.756 17.68 163.756 16.8324C163.756 15.9944 163.626 15.2392 163.366 14.5668C163.11 13.8945 162.731 13.3618 162.229 12.9688C161.728 12.5711 161.112 12.3722 160.383 12.3722C159.673 12.3722 159.069 12.564 158.572 12.9475C158.075 13.3263 157.696 13.8519 157.435 14.5242C157.18 15.1918 157.052 15.9612 157.052 16.8324ZM167.794 26.3708V11.3708H169.023V13.4518H169.172C169.323 13.1251 169.532 12.7913 169.797 12.4503C170.062 12.1047 170.412 11.8135 170.848 11.5768C171.288 11.34 171.842 11.2217 172.51 11.2217C173.41 11.2217 174.196 11.4584 174.868 11.9319C175.545 12.4006 176.071 13.0588 176.445 13.9063C176.823 14.7491 177.013 15.7316 177.013 16.8538C177.013 17.9806 176.823 18.9679 176.445 19.8154C176.071 20.6629 175.545 21.3235 174.868 21.7969C174.196 22.2704 173.414 22.5072 172.524 22.5072C171.866 22.5072 171.314 22.3888 170.869 22.1521C170.429 21.9153 170.071 21.6241 169.797 21.2785C169.527 20.9281 169.319 20.5872 169.172 20.2557H169.058V26.3708H167.794ZM169.044 16.8324C169.044 17.7131 169.174 18.4944 169.435 19.1762C169.7 19.8533 170.079 20.386 170.571 20.7742C171.068 21.1577 171.67 21.3495 172.375 21.3495C173.099 21.3495 173.71 21.1506 174.207 20.7529C174.709 20.3504 175.09 19.8083 175.351 19.1265C175.616 18.4447 175.749 17.68 175.749 16.8324C175.749 15.9944 175.618 15.2392 175.358 14.5668C175.102 13.8945 174.723 13.3618 174.222 12.9688C173.72 12.5711 173.104 12.3722 172.375 12.3722C171.665 12.3722 171.061 12.564 170.564 12.9475C170.067 13.3263 169.688 13.8519 169.428 14.5242C169.172 15.1918 169.044 15.9612 169.044 16.8324ZM179.8 22.2799V11.3708H181.072V22.2799H179.8ZM180.447 9.4958C180.186 9.4958 179.964 9.40821 179.779 9.23302C179.594 9.05309 179.502 8.83766 179.502 8.58671C179.502 8.33576 179.594 8.12269 179.779 7.94751C179.964 7.76758 180.186 7.67762 180.447 7.67762C180.707 7.67762 180.93 7.76758 181.114 7.94751C181.299 8.12269 181.391 8.33576 181.391 8.58671C181.391 8.83766 181.299 9.05309 181.114 9.23302C180.93 9.40821 180.707 9.4958 180.447 9.4958ZM185.679 15.4617V22.2799H184.415V11.3708H185.644V13.0824H185.757C186.013 12.5237 186.411 12.0763 186.951 11.7401C187.495 11.3992 188.167 11.2288 188.968 11.2288C189.702 11.2288 190.346 11.3826 190.9 11.6904C191.458 11.9934 191.891 12.4409 192.199 13.0327C192.512 13.6246 192.668 14.3514 192.668 15.2131V22.2799H191.404V15.2913C191.404 14.3964 191.153 13.6885 190.651 13.1677C190.154 12.6468 189.486 12.3864 188.648 12.3864C188.075 12.3864 187.566 12.5095 187.121 12.7557C186.676 13.002 186.323 13.3571 186.063 13.8211C185.807 14.2804 185.679 14.8272 185.679 15.4617ZM200.159 26.5981C199.416 26.5981 198.765 26.501 198.206 26.3069C197.647 26.1175 197.176 25.8571 196.793 25.5256C196.409 25.1942 196.111 24.8225 195.898 24.4106L196.935 23.7288C197.091 24.0034 197.299 24.2733 197.56 24.5384C197.825 24.8036 198.168 25.0237 198.589 25.1989C199.016 25.3741 199.539 25.4617 200.159 25.4617C201.125 25.4617 201.904 25.2202 202.496 24.7373C203.092 24.2543 203.391 23.5039 203.391 22.4859V20.0285H203.277C203.13 20.3599 202.92 20.6914 202.645 21.0228C202.37 21.3495 202.01 21.6217 201.565 21.8396C201.125 22.0574 200.578 22.1663 199.925 22.1663C199.054 22.1663 198.279 21.9508 197.602 21.5199C196.93 21.0891 196.4 20.4735 196.011 19.6734C195.628 18.8684 195.436 17.9096 195.436 16.7969C195.436 15.6937 195.623 14.7231 195.997 13.885C196.376 13.0469 196.904 12.3935 197.581 11.9248C198.258 11.456 199.046 11.2217 199.946 11.2217C200.614 11.2217 201.168 11.34 201.608 11.5768C202.048 11.8088 202.401 12.0976 202.666 12.4432C202.936 12.7889 203.147 13.1251 203.298 13.4518H203.426V11.3708H204.662V22.564C204.662 23.4873 204.465 24.2472 204.072 24.8438C203.679 25.4404 203.144 25.8807 202.467 26.1648C201.79 26.4537 201.021 26.5981 200.159 26.5981ZM200.074 21.0086C200.775 21.0086 201.374 20.8405 201.871 20.5043C202.368 20.1634 202.749 19.6757 203.014 19.0413C203.279 18.4068 203.412 17.6516 203.412 16.7756C203.412 15.9234 203.282 15.1681 203.021 14.51C202.761 13.8471 202.382 13.3263 201.885 12.9475C201.393 12.564 200.789 12.3722 200.074 12.3722C199.345 12.3722 198.729 12.5687 198.227 12.9617C197.725 13.3547 197.347 13.885 197.091 14.5526C196.835 15.2155 196.707 15.9565 196.707 16.7756C196.707 17.609 196.838 18.3452 197.098 18.9844C197.358 19.6189 197.74 20.1161 198.241 20.4759C198.743 20.831 199.354 21.0086 200.074 21.0086ZM217.874 22.5072C216.932 22.5072 216.098 22.2681 215.374 21.7898C214.654 21.3116 214.091 20.6511 213.684 19.8083C213.276 18.9608 213.073 17.983 213.073 16.8751C213.073 15.7576 213.276 14.7752 213.684 13.9276C214.091 13.0753 214.654 12.4125 215.374 11.939C216.098 11.4608 216.932 11.2217 217.874 11.2217C218.816 11.2217 219.647 11.4608 220.367 11.939C221.087 12.4172 221.65 13.0801 222.057 13.9276C222.469 14.7752 222.675 15.7576 222.675 16.8751C222.675 17.983 222.471 18.9608 222.064 19.8083C221.657 20.6511 221.091 21.3116 220.367 21.7898C219.647 22.2681 218.816 22.5072 217.874 22.5072ZM217.874 21.3495C218.632 21.3495 219.273 21.1459 219.799 20.7387C220.324 20.3315 220.722 19.7894 220.992 19.1123C221.266 18.4352 221.404 17.6895 221.404 16.8751C221.404 16.0607 221.266 15.3126 220.992 14.6307C220.722 13.9489 220.324 13.4021 219.799 12.9901C219.273 12.5782 218.632 12.3722 217.874 12.3722C217.121 12.3722 216.48 12.5782 215.949 12.9901C215.424 13.4021 215.024 13.9489 214.749 14.6307C214.479 15.3126 214.344 16.0607 214.344 16.8751C214.344 17.6895 214.479 18.4352 214.749 19.1123C215.024 19.7894 215.424 20.3315 215.949 20.7387C216.475 21.1459 217.116 21.3495 217.874 21.3495ZM233.504 11.3708L229.52 22.2799H228.17L224.186 11.3708H225.557L228.795 20.6109H228.895L232.134 11.3708H233.504ZM239.998 22.5072C238.98 22.5072 238.099 22.2704 237.355 21.7969C236.612 21.3187 236.037 20.6582 235.63 19.8154C235.227 18.9679 235.026 17.9925 235.026 16.8893C235.026 15.7908 235.227 14.8154 235.63 13.9631C236.037 13.1061 236.598 12.4361 237.313 11.9532C238.033 11.4655 238.864 11.2217 239.806 11.2217C240.398 11.2217 240.968 11.3306 241.517 11.5484C242.067 11.7614 242.559 12.0905 242.995 12.5356C243.435 12.9759 243.783 13.5323 244.039 14.2046C244.294 14.8722 244.422 15.6629 244.422 16.5768V17.2018H235.9V16.0867H243.13C243.13 15.386 242.988 14.7562 242.703 14.1975C242.424 13.6341 242.033 13.189 241.532 12.8623C241.034 12.5356 240.459 12.3722 239.806 12.3722C239.114 12.3722 238.506 12.5569 237.98 12.9262C237.455 13.2955 237.043 13.7832 236.745 14.3893C236.451 14.9953 236.302 15.6582 236.297 16.3779V17.0455C236.297 17.912 236.446 18.6696 236.745 19.3182C237.048 19.9622 237.476 20.4617 238.03 20.8168C238.584 21.1719 239.24 21.3495 239.998 21.3495C240.514 21.3495 240.966 21.269 241.354 21.108C241.747 20.947 242.076 20.7316 242.341 20.4617C242.611 20.1871 242.815 19.8864 242.952 19.5597L244.152 19.9503C243.987 20.4096 243.714 20.8334 243.336 21.2217C242.962 21.6099 242.493 21.9224 241.929 22.1592C241.371 22.3912 240.727 22.5072 239.998 22.5072ZM247.208 22.2799V11.3708H248.437V13.0469H248.529C248.747 12.4977 249.126 12.055 249.665 11.7188C250.21 11.3779 250.826 11.2074 251.512 11.2074C251.616 11.2074 251.732 11.2098 251.86 11.2146C251.988 11.2193 252.094 11.224 252.18 11.2288V12.5143C252.123 12.5048 252.023 12.4906 251.881 12.4717C251.739 12.4527 251.585 12.4432 251.42 12.4432C250.852 12.4432 250.345 12.564 249.9 12.8055C249.46 13.0422 249.112 13.3713 248.856 13.7927C248.6 14.2141 248.472 14.6947 248.472 15.2344V22.2799H247.208ZM264.401 7.73444V22.2799H263.073V9.12648H262.988L259.578 11.3921V10.0143L263.016 7.73444H264.401ZM273.336 22.4788C272.313 22.4788 271.439 22.1852 270.715 21.5981C269.995 21.0062 269.441 20.1516 269.053 19.0342C268.669 17.9167 268.478 16.5744 268.478 15.0072C268.478 13.4447 268.669 12.1071 269.053 10.9944C269.441 9.87696 269.998 9.02232 270.722 8.43046C271.451 7.83387 272.322 7.53557 273.336 7.53557C274.349 7.53557 275.218 7.83387 275.942 8.43046C276.671 9.02232 277.228 9.87696 277.611 10.9944C277.999 12.1071 278.194 13.4447 278.194 15.0072C278.194 16.5744 277.999 17.9167 277.611 19.0342C277.228 20.1516 276.674 21.0062 275.949 21.5981C275.23 22.1852 274.358 22.4788 273.336 22.4788ZM273.336 21.2856C274.458 21.2856 275.334 20.7387 275.963 19.6449C276.593 18.5465 276.908 17.0005 276.908 15.0072C276.908 13.6814 276.764 12.5498 276.475 11.6123C276.191 10.67 275.781 9.95035 275.246 9.45319C274.716 8.95603 274.079 8.70745 273.336 8.70745C272.223 8.70745 271.349 9.26143 270.715 10.3694C270.08 11.4726 269.763 13.0185 269.763 15.0072C269.763 16.3329 269.905 17.4646 270.189 18.4021C270.478 19.3396 270.888 20.0545 271.418 20.5469C271.953 21.0394 272.592 21.2856 273.336 21.2856ZM285.601 22.4788C284.578 22.4788 283.705 22.1852 282.98 21.5981C282.261 21.0062 281.707 20.1516 281.319 19.0342C280.935 17.9167 280.743 16.5744 280.743 15.0072C280.743 13.4447 280.935 12.1071 281.319 10.9944C281.707 9.87696 282.263 9.02232 282.988 8.43046C283.717 7.83387 284.588 7.53557 285.601 7.53557C286.614 7.53557 287.483 7.83387 288.208 8.43046C288.937 9.02232 289.493 9.87696 289.877 10.9944C290.265 12.1071 290.459 13.4447 290.459 15.0072C290.459 16.5744 290.265 17.9167 289.877 19.0342C289.493 20.1516 288.939 21.0062 288.215 21.5981C287.495 22.1852 286.624 22.4788 285.601 22.4788ZM285.601 21.2856C286.723 21.2856 287.599 20.7387 288.229 19.6449C288.859 18.5465 289.174 17.0005 289.174 15.0072C289.174 13.6814 289.029 12.5498 288.74 11.6123C288.456 10.67 288.047 9.95035 287.512 9.45319C286.981 8.95603 286.345 8.70745 285.601 8.70745C284.489 8.70745 283.615 9.26143 282.98 10.3694C282.346 11.4726 282.029 13.0185 282.029 15.0072C282.029 16.3329 282.171 17.4646 282.455 18.4021C282.744 19.3396 283.153 20.0545 283.684 20.5469C284.219 21.0394 284.858 21.2856 285.601 21.2856ZM297.867 22.4788C296.844 22.4788 295.971 22.1852 295.246 21.5981C294.526 21.0062 293.972 20.1516 293.584 19.0342C293.201 17.9167 293.009 16.5744 293.009 15.0072C293.009 13.4447 293.201 12.1071 293.584 10.9944C293.972 9.87696 294.529 9.02232 295.253 8.43046C295.982 7.83387 296.854 7.53557 297.867 7.53557C298.88 7.53557 299.749 7.83387 300.473 8.43046C301.203 9.02232 301.759 9.87696 302.142 10.9944C302.531 12.1071 302.725 13.4447 302.725 15.0072C302.725 16.5744 302.531 17.9167 302.142 19.0342C301.759 20.1516 301.205 21.0062 300.48 21.5981C299.761 22.1852 298.89 22.4788 297.867 22.4788ZM297.867 21.2856C298.989 21.2856 299.865 20.7387 300.495 19.6449C301.124 18.5465 301.439 17.0005 301.439 15.0072C301.439 13.6814 301.295 12.5498 301.006 11.6123C300.722 10.67 300.312 9.95035 299.777 9.45319C299.247 8.95603 298.61 8.70745 297.867 8.70745C296.754 8.70745 295.881 9.26143 295.246 10.3694C294.612 11.4726 294.294 13.0185 294.294 15.0072C294.294 16.3329 294.436 17.4646 294.721 18.4021C295.009 19.3396 295.419 20.0545 295.949 20.5469C296.484 21.0394 297.123 21.2856 297.867 21.2856ZM309.827 24.0981V5.91625H310.757V24.0981H309.827ZM313.826 11.3708C313.745 10.5611 313.388 9.9172 312.753 9.43898C312.119 8.96076 311.321 8.72165 310.36 8.72165C309.683 8.72165 309.086 8.83766 308.57 9.06966C308.059 9.30167 307.656 9.62364 307.363 10.0356C307.074 10.4428 306.929 10.9068 306.929 11.4276C306.929 11.8111 307.012 12.1473 307.178 12.4361C307.344 12.725 307.566 12.9735 307.846 13.1819C308.13 13.3855 308.442 13.5607 308.783 13.7074C309.129 13.8542 309.477 13.9773 309.827 14.0768L311.361 14.5171C311.825 14.6449 312.289 14.8083 312.753 15.0072C313.217 15.206 313.641 15.457 314.025 15.76C314.413 16.0583 314.723 16.4253 314.955 16.8609C315.192 17.2917 315.31 17.8102 315.31 18.4163C315.31 19.1928 315.109 19.8912 314.706 20.5114C314.304 21.1317 313.726 21.6241 312.973 21.9887C312.221 22.3485 311.319 22.5285 310.267 22.5285C309.278 22.5285 308.418 22.3651 307.689 22.0384C306.96 21.707 306.387 21.2501 305.971 20.6677C305.554 20.0853 305.319 19.4106 305.267 18.6435H306.631C306.678 19.2164 306.868 19.7018 307.199 20.0995C307.531 20.4972 307.962 20.8003 308.492 21.0086C309.022 21.2122 309.614 21.314 310.267 21.314C310.992 21.314 311.636 21.1932 312.199 20.9518C312.767 20.7056 313.212 20.3646 313.534 19.929C313.861 19.4887 314.025 18.9773 314.025 18.3949C314.025 17.9025 313.897 17.4906 313.641 17.1592C313.385 16.823 313.028 16.5413 312.569 16.314C312.114 16.0867 311.586 15.8855 310.985 15.7103L309.245 15.1989C308.104 14.858 307.218 14.3869 306.588 13.7856C305.959 13.1842 305.644 12.4172 305.644 11.4844C305.644 10.7032 305.852 10.0166 306.269 9.42478C306.69 8.82819 307.258 8.36417 307.973 8.03273C308.693 7.69656 309.5 7.52847 310.395 7.52847C311.3 7.52847 312.1 7.69419 312.796 8.02563C313.492 8.35707 314.043 8.81398 314.451 9.39637C314.863 9.97402 315.083 10.6322 315.111 11.3708H313.826Z" fill="#0C0C0C"/>
</svg>
