<svg width="159" height="46" viewBox="0 0 159 46" fill="none" xmlns="http://www.w3.org/2000/svg">
<path d="M20.0005 35.7168C25.9119 35.7168 30.7041 30.9246 30.7041 25.0131C30.7041 19.1017 25.9119 14.3095 20.0005 14.3095C14.089 14.3095 9.29688 19.1017 9.29688 25.0131C9.29688 30.9246 14.089 35.7168 20.0005 35.7168Z" fill="#AECDFB"/>
<path d="M19.9997 39.2811C16.6584 39.2811 13.4097 38.102 10.8519 35.9599C10.6403 35.7828 10.6122 35.4671 10.7893 35.2555C10.9664 35.0429 11.2816 35.0149 11.4942 35.193C13.8725 37.1835 16.893 38.2806 19.9997 38.2806C27.3095 38.2806 33.2566 32.3335 33.2566 25.0236C33.2566 17.7138 27.3095 11.7667 19.9997 11.7667C12.8569 11.7667 7.01536 17.4442 6.75222 24.5234H8.92486C9.201 24.5234 9.42512 24.747 9.42512 25.0236C9.42512 25.3003 9.201 25.5239 8.92486 25.5239H6.24245C5.96631 25.5239 5.74219 25.3003 5.74219 25.0236C5.74219 17.162 12.138 10.7661 19.9997 10.7661C27.8613 10.7661 34.2572 17.162 34.2572 25.0236C34.2572 32.8853 27.8613 39.2811 19.9997 39.2811Z" fill="#0C0C0C"/>
<path d="M20 45.0236C8.97221 45.0236 0 36.0514 0 25.0236C0 15.3866 6.78656 7.19728 16.1985 5.38983V3.98009H14.0239C13.7477 3.98009 13.5236 3.75597 13.5236 3.47983C13.5236 1.56082 15.0844 0 17.0034 0H22.9966C24.9156 0 26.4764 1.56082 26.4764 3.47983C26.4764 3.75597 26.2528 3.98009 25.9761 3.98009H23.801V5.38983C33.2139 7.19678 40 15.3851 40 25.0236C40 36.0514 31.0283 45.0236 20 45.0236ZM17.199 5.74902C17.1995 5.75402 17.2 5.75952 17.2005 5.76403C17.2225 6.02316 17.0455 6.25578 16.7893 6.29931C7.64051 7.85712 1.00053 15.7318 1.00053 25.0236C1.00053 35.5001 9.5235 44.0231 20 44.0231C30.4765 44.0231 38.9995 35.5001 38.9995 25.0236C38.9995 15.7298 32.3575 7.85512 23.2057 6.29881C22.9496 6.25528 22.7695 6.02266 22.7915 5.76353C22.793 5.74201 22.7965 5.7205 22.801 5.69999V3.47983C22.801 3.20368 23.0246 2.97956 23.3012 2.97956H25.4254C25.1932 1.85147 24.1927 1.00053 22.9966 1.00053H17.0034C15.8078 1.00053 14.8068 1.85147 14.5752 2.97956H16.6993C16.9754 2.97956 17.1995 3.20368 17.1995 3.47983V5.74902H17.199Z" fill="#0C0C0C"/>
<path d="M18.8812 30.9897H12.2738C12.0767 30.9897 11.8981 30.8742 11.8175 30.6941C11.7365 30.5145 11.769 30.3044 11.9001 30.1573L17.7006 23.6344C18.6876 22.5248 18.5876 20.8194 17.478 19.8324C16.3679 18.8459 14.663 18.9454 13.6755 20.055C13.4924 20.2611 13.1757 20.2801 12.9691 20.0965C12.7625 19.9129 12.744 19.5968 12.9276 19.3902C14.2808 17.8684 16.62 17.7313 18.1423 19.085C19.6641 20.4387 19.8012 22.7779 18.4475 24.2997L13.3878 29.9892H18.8812C19.1574 29.9892 19.3815 30.2128 19.3815 30.4895C19.3815 30.7661 19.1574 30.9897 18.8812 30.9897Z" fill="#0C0C0C"/>
<path d="M25.9337 30.9898C25.6571 30.9898 25.4335 30.7661 25.4335 30.4895V28.5H20.1567C19.9751 28.5 19.808 28.4019 19.7195 28.2433C19.6314 28.0847 19.6354 27.8911 19.731 27.7366L25.508 18.3881C25.6251 18.198 25.8542 18.108 26.0703 18.17C26.2854 18.2311 26.434 18.4277 26.434 18.6513V27.4994H28.1689C28.4456 27.4994 28.6692 27.723 28.6692 27.9997C28.6692 28.2763 28.4456 28.5 28.1689 28.5H26.434V30.49C26.434 30.7661 26.2104 30.9898 25.9337 30.9898ZM21.0537 27.4994H25.4335V20.4127L21.0537 27.4994Z" fill="#0C0C0C"/>
<path d="M31.5382 25.5239H31.0745C30.7978 25.5239 30.5742 25.3003 30.5742 25.0236C30.5742 24.747 30.7978 24.5234 31.0745 24.5234H31.5382C31.8149 24.5234 32.0385 24.747 32.0385 25.0236C32.0385 25.3003 31.8149 25.5239 31.5382 25.5239Z" fill="#0C0C0C"/>
<path d="M20.0003 14.4486C19.7241 14.4486 19.5 14.2245 19.5 13.9483V13.4846C19.5 13.2084 19.7241 12.9843 20.0003 12.9843C20.2764 12.9843 20.5005 13.2084 20.5005 13.4846V13.9483C20.5005 14.225 20.2764 14.4486 20.0003 14.4486Z" fill="#0C0C0C"/>
<path d="M20.0003 37.0625C19.7241 37.0625 19.5 36.8388 19.5 36.5622V36.0985C19.5 35.8218 19.7241 35.5982 20.0003 35.5982C20.2764 35.5982 20.5005 35.8218 20.5005 36.0985V36.5622C20.5005 36.8388 20.2764 37.0625 20.0003 37.0625Z" fill="#0C0C0C"/>
<path d="M49.4574 29.5118V28.6361L53.7337 23.8293C54.2919 23.1986 54.7415 22.6595 55.0824 22.2121C55.4233 21.7647 55.6705 21.3513 55.8239 20.972C55.9815 20.5928 56.0604 20.1986 56.0604 19.7895C56.0604 19.2909 55.9432 18.8563 55.7088 18.4855C55.4787 18.1105 55.1612 17.8186 54.7564 17.6098C54.3516 17.401 53.8956 17.2966 53.3885 17.2966C52.8516 17.2966 52.3807 17.4117 51.9759 17.6418C51.5753 17.8719 51.2642 18.1872 51.0426 18.5878C50.821 18.9884 50.7102 19.4486 50.7102 19.9685H49.5661C49.5661 19.2441 49.7322 18.6027 50.0646 18.0445C50.4013 17.482 50.8594 17.0409 51.4389 16.7213C52.0227 16.4017 52.6832 16.2419 53.4205 16.2419C54.1491 16.2419 54.7969 16.3996 55.3636 16.7149C55.9304 17.026 56.3757 17.45 56.6996 17.987C57.0234 18.5239 57.1854 19.1247 57.1854 19.7895C57.1854 20.271 57.1001 20.7377 56.9297 21.1894C56.7635 21.6411 56.4759 22.1439 56.0668 22.6979C55.6577 23.2519 55.0909 23.9294 54.3665 24.7306L51.1193 28.3549V28.4379H57.5945V29.5118H49.4574ZM59.8493 26.6993V25.7277L65.6852 16.4209H66.4011V18.0509H65.8706L61.1852 25.5423V25.6254H68.8365V26.6993H59.8493ZM65.9601 29.5118V26.3925V25.945V16.4209H67.0978V29.5118H65.9601ZM75.7255 15.8073L71.5067 31.4806H70.4393L74.658 15.8073H75.7255ZM78.0298 29.5118L83.9936 17.5779V17.4948H77.1222V16.4209H85.2464V17.5459L79.2891 29.5118H78.0298ZM100.247 19.6936C100.175 18.9649 99.8528 18.3854 99.2818 17.955C98.7108 17.5246 97.9927 17.3094 97.1277 17.3094C96.5183 17.3094 95.9814 17.4138 95.5169 17.6226C95.0566 17.8314 94.6944 18.1212 94.4302 18.4919C94.1703 18.8584 94.0403 19.276 94.0403 19.7448C94.0403 20.0899 94.1149 20.3925 94.264 20.6524C94.4132 20.9124 94.6135 21.1361 94.8649 21.3236C95.1206 21.5068 95.4018 21.6645 95.7086 21.7966C96.0197 21.9287 96.3329 22.0395 96.6483 22.129L98.0289 22.5253C98.4466 22.6404 98.8642 22.7874 99.2818 22.9664C99.6994 23.1453 100.081 23.3712 100.426 23.6439C100.775 23.9124 101.055 24.2426 101.263 24.6347C101.476 25.0225 101.583 25.4891 101.583 26.0345C101.583 26.7334 101.402 27.362 101.04 27.9202C100.677 28.4784 100.157 28.9216 99.4799 29.2497C98.8024 29.5736 97.9906 29.7355 97.0446 29.7355C96.1539 29.7355 95.3805 29.5885 94.7243 29.2945C94.068 28.9962 93.5524 28.585 93.1774 28.0608C92.8024 27.5367 92.5914 26.9294 92.5446 26.2391H93.7718C93.8145 26.7547 93.9849 27.1915 94.2832 27.5495C94.5815 27.9074 94.9693 28.1801 95.4466 28.3676C95.9238 28.5509 96.4565 28.6425 97.0446 28.6425C97.6966 28.6425 98.2761 28.5338 98.7832 28.3165C99.2946 28.0949 99.6951 27.7881 99.9849 27.396C100.279 26.9997 100.426 26.5395 100.426 26.0154C100.426 25.5722 100.311 25.2014 100.081 24.9031C99.8507 24.6006 99.5289 24.347 99.1156 24.1425C98.7065 23.9379 98.2314 23.7568 97.6902 23.5992L96.1241 23.1389C95.0971 22.8321 94.3002 22.4081 93.7335 21.8669C93.1667 21.3257 92.8833 20.6354 92.8833 19.7959C92.8833 19.0928 93.0708 18.4749 93.4458 17.9422C93.8251 17.4053 94.3365 16.9877 94.9799 16.6894C95.6277 16.3868 96.3542 16.2355 97.1596 16.2355C97.9735 16.2355 98.6937 16.3847 99.3201 16.683C99.9466 16.9813 100.443 17.3925 100.809 17.9166C101.18 18.4365 101.378 19.0289 101.404 19.6936H100.247ZM110.461 25.7597V19.6936H111.599V29.5118H110.461V27.8818H110.372C110.142 28.3847 109.778 28.8044 109.279 29.1411C108.78 29.4735 108.171 29.6397 107.451 29.6397C106.824 29.6397 106.268 29.5033 105.782 29.2306C105.297 28.9536 104.915 28.5487 104.638 28.0161C104.361 27.4834 104.223 26.8293 104.223 26.0537V19.6936H105.361V25.9834C105.361 26.7504 105.586 27.3683 106.038 27.8371C106.49 28.3016 107.069 28.5338 107.777 28.5338C108.22 28.5338 108.646 28.4273 109.055 28.2142C109.464 28.0012 109.801 27.6901 110.065 27.281C110.329 26.8676 110.461 26.3605 110.461 25.7597ZM114.612 33.1936V19.6936H115.717V21.5665H115.852C115.988 21.2725 116.175 20.972 116.414 20.6652C116.653 20.3541 116.968 20.0921 117.36 19.879C117.756 19.6659 118.255 19.5594 118.856 19.5594C119.665 19.5594 120.373 19.7725 120.978 20.1986C121.587 20.6205 122.06 21.2128 122.397 21.9756C122.738 22.7341 122.908 23.6183 122.908 24.6283C122.908 25.6425 122.738 26.531 122.397 27.2938C122.06 28.0566 121.587 28.651 120.978 29.0772C120.373 29.5033 119.67 29.7164 118.869 29.7164C118.276 29.7164 117.78 29.6098 117.379 29.3968C116.983 29.1837 116.661 28.9216 116.414 28.6105C116.171 28.2952 115.984 27.9884 115.852 27.6901H115.749V33.1936H114.612ZM115.737 24.6091C115.737 25.4017 115.854 26.1048 116.088 26.7185C116.327 27.3279 116.668 27.8073 117.111 28.1567C117.558 28.5019 118.099 28.6745 118.734 28.6745C119.386 28.6745 119.936 28.4955 120.384 28.1375C120.835 27.7753 121.178 27.2874 121.413 26.6737C121.651 26.0601 121.771 25.3719 121.771 24.6091C121.771 23.8548 121.653 23.1752 121.419 22.57C121.189 21.9649 120.848 21.4855 120.396 21.1318C119.945 20.7739 119.391 20.5949 118.734 20.5949C118.095 20.5949 117.552 20.7675 117.104 21.1127C116.657 21.4536 116.316 21.9266 116.082 22.5317C115.852 23.1325 115.737 23.825 115.737 24.6091ZM125.404 33.1936V19.6936H126.51V21.5665H126.645C126.781 21.2725 126.968 20.972 127.207 20.6652C127.446 20.3541 127.761 20.0921 128.153 19.879C128.549 19.6659 129.048 19.5594 129.649 19.5594C130.458 19.5594 131.166 19.7725 131.771 20.1986C132.38 20.6205 132.853 21.2128 133.19 21.9756C133.531 22.7341 133.701 23.6183 133.701 24.6283C133.701 25.6425 133.531 26.531 133.19 27.2938C132.853 28.0566 132.38 28.651 131.771 29.0772C131.166 29.5033 130.463 29.7164 129.662 29.7164C129.069 29.7164 128.573 29.6098 128.172 29.3968C127.776 29.1837 127.454 28.9216 127.207 28.6105C126.964 28.2952 126.777 27.9884 126.645 27.6901H126.542V33.1936H125.404ZM126.529 24.6091C126.529 25.4017 126.647 26.1048 126.881 26.7185C127.12 27.3279 127.461 27.8073 127.904 28.1567C128.351 28.5019 128.892 28.6745 129.527 28.6745C130.179 28.6745 130.729 28.4955 131.176 28.1375C131.628 27.7753 131.971 27.2874 132.206 26.6737C132.444 26.0601 132.564 25.3719 132.564 24.6091C132.564 23.8548 132.446 23.1752 132.212 22.57C131.982 21.9649 131.641 21.4855 131.189 21.1318C130.738 20.7739 130.184 20.5949 129.527 20.5949C128.888 20.5949 128.345 20.7675 127.897 21.1127C127.45 21.4536 127.109 21.9266 126.875 22.5317C126.645 23.1325 126.529 23.825 126.529 24.6091ZM140.013 29.7164C139.165 29.7164 138.415 29.5012 137.763 29.0708C137.116 28.6404 136.609 28.0459 136.242 27.2874C135.876 26.5246 135.692 25.6446 135.692 24.6475C135.692 23.6418 135.876 22.7575 136.242 21.9948C136.609 21.2277 137.116 20.6311 137.763 20.205C138.415 19.7746 139.165 19.5594 140.013 19.5594C140.862 19.5594 141.609 19.7746 142.257 20.205C142.905 20.6354 143.412 21.232 143.778 21.9948C144.149 22.7575 144.335 23.6418 144.335 24.6475C144.335 25.6446 144.151 26.5246 143.785 27.2874C143.418 28.0459 142.909 28.6404 142.257 29.0708C141.609 29.5012 140.862 29.7164 140.013 29.7164ZM140.013 28.6745C140.695 28.6745 141.273 28.4912 141.746 28.1247C142.219 27.7583 142.577 27.2703 142.82 26.661C143.067 26.0516 143.19 25.3804 143.19 24.6475C143.19 23.9145 143.067 23.2412 142.82 22.6276C142.577 22.0139 142.219 21.5218 141.746 21.151C141.273 20.7803 140.695 20.5949 140.013 20.5949C139.336 20.5949 138.759 20.7803 138.281 21.151C137.808 21.5218 137.448 22.0139 137.201 22.6276C136.958 23.2412 136.837 23.9145 136.837 24.6475C136.837 25.3804 136.958 26.0516 137.201 26.661C137.448 27.2703 137.808 27.7583 138.281 28.1247C138.754 28.4912 139.332 28.6745 140.013 28.6745ZM146.832 29.5118V19.6936H147.938V21.2022H148.021C148.217 20.7078 148.558 20.3094 149.044 20.0068C149.534 19.7 150.088 19.5466 150.706 19.5466C150.8 19.5466 150.904 19.5487 151.019 19.553C151.134 19.5573 151.23 19.5615 151.307 19.5658V20.7227C151.256 20.7142 151.166 20.7014 151.038 20.6844C150.91 20.6673 150.772 20.6588 150.623 20.6588C150.111 20.6588 149.655 20.7675 149.255 20.9848C148.858 21.1979 148.545 21.4941 148.315 21.8733C148.085 22.2526 147.97 22.6851 147.97 23.1709V29.5118H146.832ZM157.731 19.6936V20.6844H153.045V19.6936H157.731ZM154.509 17.3414H155.653V26.9486C155.653 27.3577 155.724 27.6794 155.864 27.9138C156.005 28.1439 156.188 28.308 156.414 28.406C156.64 28.4997 156.881 28.5466 157.136 28.5466C157.285 28.5466 157.413 28.5381 157.52 28.521C157.626 28.4997 157.72 28.4784 157.801 28.4571L158.044 29.4862C157.933 29.5289 157.797 29.5672 157.635 29.6013C157.473 29.6397 157.273 29.6588 157.034 29.6588C156.616 29.6588 156.214 29.5672 155.826 29.384C155.442 29.2007 155.127 28.928 154.88 28.5658C154.633 28.2036 154.509 27.754 154.509 27.2171V17.3414Z" fill="#0C0C0C"/>
</svg>
