<svg width="293" height="34" viewBox="0 0 293 34" fill="none" xmlns="http://www.w3.org/2000/svg">
<path d="M34.4429 23.0991H5.55755C4.20644 23.0991 3.11133 22.004 3.11133 20.6529V5.55734C3.11133 4.20623 4.20644 3.11111 5.55755 3.11111H34.4424C35.7935 3.11111 36.8887 4.20623 36.8887 5.55734V20.6524C36.8891 22.004 35.794 23.0991 34.4429 23.0991Z" fill="#AECDFB"/>
<path d="M24.019 15.1742H9.25499C9.00966 15.1742 8.81055 14.9751 8.81055 14.7298C8.81055 14.4844 9.00966 14.2853 9.25499 14.2853H24.019C24.2648 14.2853 24.4634 14.4844 24.4634 14.7298C24.4634 14.9751 24.2648 15.1742 24.019 15.1742Z" fill="#0C0C0C"/>
<path d="M23.008 11.0218H5.74132C5.49599 11.0218 5.29688 10.8227 5.29688 10.5773C5.29688 10.332 5.49599 10.1329 5.74132 10.1329H23.008C23.2538 10.1329 23.4524 10.332 23.4524 10.5773C23.4524 10.8227 23.2533 11.0218 23.008 11.0218Z" fill="#0C0C0C"/>
<path d="M11.272 26.2102H2.44178C1.09556 26.2102 0 25.1147 0 23.7684V2.44178C0 1.09556 1.09556 0 2.44178 0H37.5582C38.9044 0 40 1.09556 40 2.44178V4.15822C40 4.40355 39.8013 4.60266 39.5555 4.60266C39.3098 4.60266 39.1111 4.40355 39.1111 4.15822V2.44178C39.1111 1.58533 38.4146 0.888888 37.5582 0.888888H2.44178C1.58533 0.888888 0.888889 1.58533 0.888889 2.44178V23.768C0.888889 24.6244 1.58533 25.3209 2.44178 25.3209H11.272C11.5173 25.3209 11.7164 25.5195 11.7164 25.7653C11.7164 26.0111 11.5173 26.2102 11.272 26.2102Z" fill="#0C0C0C"/>
<path d="M20.3639 26.2102H16.4933C16.2479 26.2102 16.0488 26.0115 16.0488 25.7658C16.0488 25.52 16.2479 25.3213 16.4933 25.3213H20.3639C20.6097 25.3213 20.8084 25.52 20.8084 25.7658C20.8084 26.0115 20.6097 26.2102 20.3639 26.2102Z" fill="#0C0C0C"/>
<path d="M37.5581 26.2102H24.2342C23.9884 26.2102 23.7897 26.0115 23.7897 25.7658C23.7897 25.52 23.9884 25.3213 24.2342 25.3213H37.5581C38.4146 25.3213 39.111 24.6249 39.111 23.7684V21.9009H4.56749C4.32216 21.9009 4.12305 21.7022 4.12305 21.4564C4.12305 21.2107 4.32216 21.012 4.56749 21.012H39.5555C39.8013 21.012 39.9999 21.2107 39.9999 21.4564V23.7684C39.9999 25.1147 38.9044 26.2102 37.5581 26.2102Z" fill="#0C0C0C"/>
<path d="M29.137 33.6338H11.589C11.3436 33.6338 11.1445 33.4351 11.1445 33.1893C11.1445 31.4133 12.5894 29.9684 14.3659 29.9684H14.6828L16.069 25.6302C16.1436 25.3969 16.3952 25.2662 16.6276 25.3427C16.8614 25.4173 16.9903 25.6671 16.9156 25.9013L15.4308 30.5484C15.3721 30.7324 15.2005 30.8573 15.0072 30.8573H14.3654C13.2312 30.8573 12.2836 31.6707 12.0756 32.7449H28.6494C28.4414 31.6707 27.4934 30.8573 26.3596 30.8573H25.7183C25.525 30.8573 25.3539 30.7324 25.2952 30.5484L23.8103 25.9013C23.7352 25.6675 23.8645 25.4173 24.0979 25.3427C24.333 25.2649 24.5819 25.3969 24.6565 25.6302L26.0427 29.9684H26.3596C28.1361 29.9684 29.581 31.4133 29.581 33.1893C29.5814 33.4351 29.3823 33.6338 29.137 33.6338Z" fill="#0C0C0C"/>
<path d="M20.8154 23.7733H19.9132C19.6679 23.7733 19.4688 23.5747 19.4688 23.3289C19.4688 23.0831 19.6679 22.8844 19.9132 22.8844H20.8154C21.0612 22.8844 21.2599 23.0831 21.2599 23.3289C21.2599 23.5747 21.0612 23.7733 20.8154 23.7733Z" fill="#0C0C0C"/>
<path d="M35.6874 14.3731C35.6203 14.3731 35.5527 14.357 35.4906 14.3245L32.705 12.8599L29.919 14.3245C29.7771 14.3997 29.6043 14.3874 29.4742 14.2924C29.3441 14.1977 29.279 14.0376 29.3061 13.8792L29.8379 10.7768L27.5846 8.58014C27.4697 8.46777 27.4279 8.30007 27.4778 8.14714C27.5276 7.99422 27.6598 7.88269 27.8187 7.85946L30.9333 7.40703L32.3265 4.58471C32.4684 4.29619 32.942 4.29619 33.0839 4.58471L34.4771 7.40703L37.5914 7.85946C37.7506 7.88269 37.8824 7.99422 37.9327 8.14714C37.9821 8.30007 37.9412 8.46777 37.8258 8.58014L35.5721 10.7768L36.104 13.8792C36.131 14.0376 36.0659 14.1977 35.9363 14.2924C35.8619 14.346 35.7749 14.3731 35.6874 14.3731ZM28.7873 8.57296L30.5869 10.3274C30.6862 10.4241 30.7318 10.5643 30.7081 10.7012L30.2832 13.1784L32.5082 12.0087C32.6319 11.9436 32.7781 11.9436 32.9019 12.0087L35.1264 13.1784L34.7019 10.7012C34.6782 10.5643 34.7239 10.4245 34.8231 10.3274L36.6231 8.57296L34.1358 8.21178C33.9981 8.19192 33.8794 8.10532 33.8177 7.9807L32.705 5.72614L31.5923 7.97986C31.5306 8.10448 31.4119 8.19108 31.2742 8.21093L28.7873 8.57296Z" fill="#0C0C0C"/>
<path d="M57.9318 23.8169V9.27142H59.2599V22.6237H66.1918V23.8169H57.9318ZM71.9659 24.0655C71.3078 24.0655 70.7064 23.9376 70.1619 23.6819C69.6174 23.4215 69.1842 23.0475 68.8622 22.5598C68.5402 22.0674 68.3793 21.4708 68.3793 20.77C68.3793 20.2302 68.4811 19.7757 68.6847 19.4064C68.8883 19.037 69.1771 18.734 69.5511 18.4973C69.9252 18.2605 70.3679 18.0735 70.8793 17.9362C71.3906 17.7989 71.9541 17.6924 72.5696 17.6166C73.1804 17.5408 73.6965 17.4745 74.1179 17.4177C74.544 17.3609 74.8684 17.271 75.0909 17.1478C75.3134 17.0247 75.4247 16.8259 75.4247 16.5513V16.2956C75.4247 15.5522 75.2022 14.9674 74.7571 14.5413C74.3168 14.1104 73.6823 13.895 72.8537 13.895C72.0677 13.895 71.4261 14.0678 70.929 14.4135C70.4366 14.7591 70.0909 15.1663 69.892 15.6351L68.6918 15.2018C68.938 14.6052 69.2789 14.1294 69.7145 13.7743C70.1501 13.4144 70.6378 13.1564 71.1776 13.0001C71.7173 12.8391 72.2642 12.7586 72.8182 12.7586C73.2348 12.7586 73.6681 12.8131 74.1179 12.922C74.5724 13.0309 74.9938 13.2203 75.3821 13.4902C75.7704 13.7553 76.0852 14.127 76.3267 14.6052C76.5682 15.0787 76.6889 15.68 76.6889 16.4092V23.8169H75.4247V22.091H75.3466C75.1951 22.413 74.9702 22.7255 74.6719 23.0285C74.3736 23.3316 73.9995 23.5801 73.5497 23.7743C73.0999 23.9684 72.572 24.0655 71.9659 24.0655ZM72.1364 22.9078C72.8087 22.9078 73.3911 22.7586 73.8835 22.4603C74.3759 22.162 74.7547 21.7667 75.0199 21.2743C75.2898 20.7771 75.4247 20.2302 75.4247 19.6336V18.0569C75.33 18.1469 75.1714 18.2274 74.9489 18.2984C74.7311 18.3694 74.4777 18.4334 74.1889 18.4902C73.9048 18.5423 73.6207 18.5872 73.3366 18.6251C73.0526 18.663 72.7969 18.6961 72.5696 18.7245C71.9541 18.8003 71.4285 18.9187 70.9929 19.0797C70.5573 19.2406 70.2235 19.4632 69.9915 19.7473C69.7595 20.0266 69.6435 20.3865 69.6435 20.8268C69.6435 21.4897 69.8802 22.0034 70.3537 22.368C70.8272 22.7279 71.4214 22.9078 72.1364 22.9078ZM84.3487 12.9078V14.0086H79.1428V12.9078H84.3487ZM80.7692 10.2942H82.0405V20.9689C82.0405 21.4234 82.1186 21.7809 82.2749 22.0413C82.4311 22.297 82.6347 22.4793 82.8857 22.5882C83.1366 22.6924 83.4041 22.7444 83.6882 22.7444C83.8539 22.7444 83.996 22.735 84.1143 22.716C84.2327 22.6924 84.3369 22.6687 84.4268 22.645L84.6967 23.7885C84.5736 23.8358 84.4221 23.8784 84.2422 23.9163C84.0623 23.9589 83.8397 23.9802 83.5746 23.9802C83.1106 23.9802 82.6631 23.8784 82.2322 23.6748C81.8061 23.4712 81.4557 23.1682 81.1811 22.7657C80.9065 22.3633 80.7692 21.8638 80.7692 21.2672V10.2942ZM91.5131 24.0442C90.4951 24.0442 89.6145 23.8074 88.8711 23.3339C88.1277 22.8557 87.5524 22.1952 87.1452 21.3524C86.7428 20.5049 86.5415 19.5295 86.5415 18.4263C86.5415 17.3278 86.7428 16.3524 87.1452 15.5001C87.5524 14.6431 88.1135 13.9731 88.8285 13.4902C89.5482 13.0025 90.3791 12.7586 91.3214 12.7586C91.9132 12.7586 92.4838 12.8675 93.033 13.0853C93.5823 13.2984 94.0747 13.6275 94.5103 14.0726C94.9506 14.5129 95.2987 15.0692 95.5543 15.7416C95.81 16.4092 95.9379 17.1999 95.9379 18.1138V18.7388H87.4151V17.6237H94.6452C94.6452 16.9229 94.5032 16.2932 94.2191 15.7345C93.9397 15.171 93.5491 14.726 93.0472 14.3993C92.5501 14.0726 91.9748 13.9092 91.3214 13.9092C90.6301 13.9092 90.0217 14.0939 89.4961 14.4632C88.9705 14.8325 88.5586 15.3202 88.2603 15.9263C87.9667 16.5323 87.8176 17.1952 87.8129 17.9149V18.5825C87.8129 19.449 87.962 20.2066 88.2603 20.8552C88.5633 21.4992 88.9918 21.9987 89.5458 22.3538C90.0998 22.7089 90.7556 22.8865 91.5131 22.8865C92.0292 22.8865 92.4814 22.806 92.8697 22.645C93.2627 22.484 93.5917 22.2686 93.8569 21.9987C94.1268 21.7241 94.3304 21.4234 94.4677 21.0967L95.668 21.4873C95.5022 21.9466 95.23 22.3704 94.8512 22.7586C94.4772 23.1469 94.0084 23.4594 93.445 23.6961C92.8862 23.9281 92.2423 24.0442 91.5131 24.0442ZM106.053 15.3013L104.896 15.628C104.782 15.3013 104.621 15.0053 104.413 14.7402C104.204 14.475 103.932 14.2643 103.596 14.1081C103.264 13.9518 102.853 13.8737 102.36 13.8737C101.621 13.8737 101.015 14.0489 100.542 14.3993C100.068 14.7496 99.8317 15.2018 99.8317 15.7558C99.8317 16.2245 99.9927 16.6057 100.315 16.8993C100.641 17.1881 101.143 17.4177 101.82 17.5882L103.468 17.993C104.382 18.2156 105.066 18.5683 105.521 19.0513C105.98 19.5342 106.21 20.1403 106.21 20.8694C106.21 21.485 106.039 22.0318 105.698 22.5101C105.357 22.9883 104.881 23.3647 104.271 23.6393C103.665 23.9092 102.961 24.0442 102.161 24.0442C101.096 24.0442 100.218 23.805 99.5263 23.3268C98.835 22.8439 98.3923 22.1478 98.1982 21.2388L99.4126 20.9405C99.5689 21.5891 99.8743 22.0792 100.329 22.4106C100.788 22.7421 101.392 22.9078 102.14 22.9078C102.978 22.9078 103.648 22.7208 104.15 22.3467C104.652 21.9679 104.903 21.4944 104.903 20.9263C104.903 20.4859 104.756 20.1166 104.462 19.8183C104.169 19.5153 103.724 19.2927 103.127 19.1507L101.344 18.7245C100.397 18.4973 99.6967 18.1374 99.2422 17.645C98.7876 17.1526 98.5604 16.5418 98.5604 15.8126C98.5604 15.2113 98.7237 14.6834 99.0504 14.2288C99.3771 13.7695 99.8269 13.4097 100.4 13.1493C100.973 12.8888 101.626 12.7586 102.36 12.7586C103.359 12.7586 104.157 12.9859 104.754 13.4405C105.355 13.8903 105.788 14.5105 106.053 15.3013ZM113.275 12.9078V14.0086H108.069V12.9078H113.275ZM109.695 10.2942H110.966V20.9689C110.966 21.4234 111.044 21.7809 111.201 22.0413C111.357 22.297 111.56 22.4793 111.811 22.5882C112.062 22.6924 112.33 22.7444 112.614 22.7444C112.78 22.7444 112.922 22.735 113.04 22.716C113.158 22.6924 113.263 22.6687 113.353 22.645L113.623 23.7885C113.499 23.8358 113.348 23.8784 113.168 23.9163C112.988 23.9589 112.766 23.9802 112.5 23.9802C112.036 23.9802 111.589 23.8784 111.158 23.6748C110.732 23.4712 110.382 23.1682 110.107 22.7657C109.832 22.3633 109.695 21.8638 109.695 21.2672V10.2942ZM124.817 24.0655C124.159 24.0655 123.558 23.9376 123.013 23.6819C122.469 23.4215 122.036 23.0475 121.714 22.5598C121.392 22.0674 121.231 21.4708 121.231 20.77C121.231 20.2302 121.333 19.7757 121.536 19.4064C121.74 19.037 122.029 18.734 122.403 18.4973C122.777 18.2605 123.219 18.0735 123.731 17.9362C124.242 17.7989 124.806 17.6924 125.421 17.6166C126.032 17.5408 126.548 17.4745 126.969 17.4177C127.396 17.3609 127.72 17.271 127.942 17.1478C128.165 17.0247 128.276 16.8259 128.276 16.5513V16.2956C128.276 15.5522 128.054 14.9674 127.609 14.5413C127.168 14.1104 126.534 13.895 125.705 13.895C124.919 13.895 124.278 14.0678 123.781 14.4135C123.288 14.7591 122.942 15.1663 122.744 15.6351L121.543 15.2018C121.79 14.6052 122.13 14.1294 122.566 13.7743C123.002 13.4144 123.489 13.1564 124.029 13.0001C124.569 12.8391 125.116 12.7586 125.67 12.7586C126.086 12.7586 126.52 12.8131 126.969 12.922C127.424 13.0309 127.845 13.2203 128.234 13.4902C128.622 13.7553 128.937 14.127 129.178 14.6052C129.42 15.0787 129.54 15.68 129.54 16.4092V23.8169H128.276V22.091H128.198C128.047 22.413 127.822 22.7255 127.523 23.0285C127.225 23.3316 126.851 23.5801 126.401 23.7743C125.951 23.9684 125.424 24.0655 124.817 24.0655ZM124.988 22.9078C125.66 22.9078 126.243 22.7586 126.735 22.4603C127.228 22.162 127.606 21.7667 127.871 21.2743C128.141 20.7771 128.276 20.2302 128.276 19.6336V18.0569C128.182 18.1469 128.023 18.2274 127.8 18.2984C127.583 18.3694 127.329 18.4334 127.04 18.4902C126.756 18.5423 126.472 18.5872 126.188 18.6251C125.904 18.663 125.648 18.6961 125.421 18.7245C124.806 18.8003 124.28 18.9187 123.844 19.0797C123.409 19.2406 123.075 19.4632 122.843 19.7473C122.611 20.0266 122.495 20.3865 122.495 20.8268C122.495 21.4897 122.732 22.0034 123.205 22.368C123.679 22.7279 124.273 22.9078 124.988 22.9078ZM134.168 16.9987V23.8169H132.903V12.9078H134.132V14.6194H134.246C134.501 14.0607 134.899 13.6133 135.439 13.2771C135.983 12.9362 136.656 12.7657 137.456 12.7657C138.19 12.7657 138.834 12.9196 139.388 13.2274C139.946 13.5304 140.38 13.9779 140.688 14.5697C141 15.1616 141.156 15.8884 141.156 16.7501V23.8169H139.892V16.8282C139.892 15.9334 139.641 15.2255 139.139 14.7047C138.642 14.1838 137.974 13.9234 137.136 13.9234C136.563 13.9234 136.054 14.0465 135.609 14.2927C135.164 14.5389 134.812 14.8941 134.551 15.3581C134.295 15.8174 134.168 16.3642 134.168 16.9987ZM148.413 24.0442C147.518 24.0442 146.734 23.8074 146.062 23.3339C145.39 22.8604 144.864 22.1999 144.485 21.3524C144.111 20.5049 143.924 19.5176 143.924 18.3907C143.924 17.2686 144.111 16.2861 144.485 15.4433C144.864 14.5958 145.392 13.9376 146.069 13.4689C146.746 12.9954 147.535 12.7586 148.434 12.7586C149.097 12.7586 149.649 12.877 150.089 13.1138C150.529 13.3458 150.882 13.6346 151.147 13.9802C151.413 14.3259 151.618 14.662 151.765 14.9888H151.879V9.27142H153.15V23.8169H151.914V21.7927H151.765C151.618 22.1242 151.41 22.4651 151.14 22.8155C150.87 23.1611 150.513 23.4523 150.068 23.689C149.627 23.9258 149.076 24.0442 148.413 24.0442ZM148.562 22.8865C149.268 22.8865 149.869 22.6947 150.366 22.3112C150.863 21.9229 151.242 21.3903 151.502 20.7132C151.768 20.0314 151.9 19.2501 151.9 18.3694C151.9 17.4982 151.77 16.7288 151.51 16.0612C151.249 15.3888 150.87 14.8633 150.373 14.4845C149.876 14.101 149.272 13.9092 148.562 13.9092C147.833 13.9092 147.217 14.1081 146.716 14.5058C146.218 14.8988 145.84 15.4315 145.579 16.1038C145.324 16.7762 145.196 17.5314 145.196 18.3694C145.196 19.217 145.326 19.9817 145.586 20.6635C145.847 21.3453 146.225 21.8874 146.723 22.2899C147.225 22.6876 147.838 22.8865 148.562 22.8865ZM172.703 13.8169C172.57 13.3339 172.376 12.8817 172.12 12.4603C171.865 12.0342 171.547 11.6625 171.169 11.3453C170.795 11.0233 170.361 10.7724 169.869 10.5924C169.381 10.4125 168.837 10.3226 168.235 10.3226C167.288 10.3226 166.441 10.5688 165.693 11.0612C164.945 11.5536 164.353 12.2638 163.917 13.1919C163.486 14.1199 163.271 15.2373 163.271 16.5442C163.271 17.8462 163.489 18.9613 163.924 19.8893C164.36 20.8174 164.957 21.5299 165.714 22.0271C166.476 22.5195 167.348 22.7657 168.328 22.7657C169.223 22.7657 170.013 22.5669 170.7 22.1692C171.386 21.7714 171.922 21.2032 172.305 20.4646C172.693 19.726 172.883 18.8477 172.873 17.8297L173.299 17.9646H168.64V16.7714H174.166V17.9646C174.166 19.2051 173.915 20.2776 173.413 21.1819C172.911 22.0863 172.222 22.7847 171.346 23.2771C170.47 23.7695 169.464 24.0157 168.328 24.0157C167.059 24.0157 165.949 23.7103 164.997 23.0995C164.045 22.484 163.304 21.6175 162.774 20.5001C162.248 19.378 161.985 18.0593 161.985 16.5442C161.985 15.4031 162.137 14.3732 162.44 13.4547C162.743 12.5361 163.172 11.7501 163.725 11.0967C164.284 10.4433 164.945 9.94377 165.707 9.59813C166.469 9.24775 167.312 9.07256 168.235 9.07256C169.031 9.07256 169.758 9.19803 170.416 9.44898C171.079 9.69993 171.661 10.0456 172.163 10.4859C172.67 10.9215 173.084 11.4258 173.406 11.9987C173.733 12.5669 173.953 13.1729 174.066 13.8169H172.703ZM177.2 23.8169V12.9078H178.429V14.5839H178.521C178.739 14.0347 179.118 13.592 179.658 13.2558C180.202 12.9149 180.818 12.7444 181.504 12.7444C181.608 12.7444 181.724 12.7468 181.852 12.7515C181.98 12.7563 182.087 12.761 182.172 12.7657V14.0513C182.115 14.0418 182.016 14.0276 181.874 14.0086C181.732 13.9897 181.578 13.9802 181.412 13.9802C180.844 13.9802 180.337 14.101 179.892 14.3424C179.452 14.5792 179.104 14.9083 178.848 15.3297C178.592 15.7511 178.464 16.2317 178.464 16.7714V23.8169H177.2ZM188.408 24.0442C187.39 24.0442 186.509 23.8074 185.766 23.3339C185.022 22.8557 184.447 22.1952 184.04 21.3524C183.637 20.5049 183.436 19.5295 183.436 18.4263C183.436 17.3278 183.637 16.3524 184.04 15.5001C184.447 14.6431 185.008 13.9731 185.723 13.4902C186.443 13.0025 187.274 12.7586 188.216 12.7586C188.808 12.7586 189.378 12.8675 189.928 13.0853C190.477 13.2984 190.969 13.6275 191.405 14.0726C191.845 14.5129 192.193 15.0692 192.449 15.7416C192.705 16.4092 192.832 17.1999 192.832 18.1138V18.7388H184.31V17.6237H191.54C191.54 16.9229 191.398 16.2932 191.114 15.7345C190.834 15.171 190.444 14.726 189.942 14.3993C189.445 14.0726 188.869 13.9092 188.216 13.9092C187.525 13.9092 186.916 14.0939 186.391 14.4632C185.865 14.8325 185.453 15.3202 185.155 15.9263C184.861 16.5323 184.712 17.1952 184.707 17.9149V18.5825C184.707 19.449 184.857 20.2066 185.155 20.8552C185.458 21.4992 185.886 21.9987 186.44 22.3538C186.994 22.7089 187.65 22.8865 188.408 22.8865C188.924 22.8865 189.376 22.806 189.764 22.645C190.157 22.484 190.486 22.2686 190.751 21.9987C191.021 21.7241 191.225 21.4234 191.362 21.0967L192.562 21.4873C192.397 21.9466 192.125 22.3704 191.746 22.7586C191.372 23.1469 190.903 23.4594 190.339 23.6961C189.781 23.9281 189.137 24.0442 188.408 24.0442ZM198.665 24.0655C198.007 24.0655 197.406 23.9376 196.861 23.6819C196.317 23.4215 195.883 23.0475 195.561 22.5598C195.239 22.0674 195.078 21.4708 195.078 20.77C195.078 20.2302 195.18 19.7757 195.384 19.4064C195.587 19.037 195.876 18.734 196.25 18.4973C196.624 18.2605 197.067 18.0735 197.578 17.9362C198.09 17.7989 198.653 17.6924 199.269 17.6166C199.88 17.5408 200.396 17.4745 200.817 17.4177C201.243 17.3609 201.568 17.271 201.79 17.1478C202.013 17.0247 202.124 16.8259 202.124 16.5513V16.2956C202.124 15.5522 201.901 14.9674 201.456 14.5413C201.016 14.1104 200.382 13.895 199.553 13.895C198.767 13.895 198.125 14.0678 197.628 14.4135C197.136 14.7591 196.79 15.1663 196.591 15.6351L195.391 15.2018C195.637 14.6052 195.978 14.1294 196.414 13.7743C196.849 13.4144 197.337 13.1564 197.877 13.0001C198.417 12.8391 198.963 12.7586 199.517 12.7586C199.934 12.7586 200.367 12.8131 200.817 12.922C201.272 13.0309 201.693 13.2203 202.081 13.4902C202.47 13.7553 202.784 14.127 203.026 14.6052C203.267 15.0787 203.388 15.68 203.388 16.4092V23.8169H202.124V22.091H202.046C201.894 22.413 201.669 22.7255 201.371 23.0285C201.073 23.3316 200.699 23.5801 200.249 23.7743C199.799 23.9684 199.271 24.0655 198.665 24.0655ZM198.836 22.9078C199.508 22.9078 200.09 22.7586 200.583 22.4603C201.075 22.162 201.454 21.7667 201.719 21.2743C201.989 20.7771 202.124 20.2302 202.124 19.6336V18.0569C202.029 18.1469 201.871 18.2274 201.648 18.2984C201.43 18.3694 201.177 18.4334 200.888 18.4902C200.604 18.5423 200.32 18.5872 200.036 18.6251C199.752 18.663 199.496 18.6961 199.269 18.7245C198.653 18.8003 198.128 18.9187 197.692 19.0797C197.257 19.2406 196.923 19.4632 196.691 19.7473C196.459 20.0266 196.343 20.3865 196.343 20.8268C196.343 21.4897 196.579 22.0034 197.053 22.368C197.526 22.7279 198.121 22.9078 198.836 22.9078ZM211.048 12.9078V14.0086H205.842V12.9078H211.048ZM207.468 10.2942H208.74V20.9689C208.74 21.4234 208.818 21.7809 208.974 22.0413C209.13 22.297 209.334 22.4793 209.585 22.5882C209.836 22.6924 210.103 22.7444 210.387 22.7444C210.553 22.7444 210.695 22.735 210.814 22.716C210.932 22.6924 211.036 22.6687 211.126 22.645L211.396 23.7885C211.273 23.8358 211.121 23.8784 210.941 23.9163C210.761 23.9589 210.539 23.9802 210.274 23.9802C209.81 23.9802 209.362 23.8784 208.931 23.6748C208.505 23.4712 208.155 23.1682 207.88 22.7657C207.606 22.3633 207.468 21.8638 207.468 21.2672V10.2942ZM218.212 24.0442C217.194 24.0442 216.314 23.8074 215.57 23.3339C214.827 22.8557 214.252 22.1952 213.844 21.3524C213.442 20.5049 213.241 19.5295 213.241 18.4263C213.241 17.3278 213.442 16.3524 213.844 15.5001C214.252 14.6431 214.813 13.9731 215.528 13.4902C216.247 13.0025 217.078 12.7586 218.021 12.7586C218.612 12.7586 219.183 12.8675 219.732 13.0853C220.281 13.2984 220.774 13.6275 221.21 14.0726C221.65 14.5129 221.998 15.0692 222.254 15.7416C222.509 16.4092 222.637 17.1999 222.637 18.1138V18.7388H214.114V17.6237H221.344C221.344 16.9229 221.202 16.2932 220.918 15.7345C220.639 15.171 220.248 14.726 219.746 14.3993C219.249 14.0726 218.674 13.9092 218.021 13.9092C217.329 13.9092 216.721 14.0939 216.195 14.4632C215.67 14.8325 215.258 15.3202 214.96 15.9263C214.666 16.5323 214.517 17.1952 214.512 17.9149V18.5825C214.512 19.449 214.661 20.2066 214.96 20.8552C215.263 21.4992 215.691 21.9987 216.245 22.3538C216.799 22.7089 217.455 22.8865 218.212 22.8865C218.728 22.8865 219.181 22.806 219.569 22.645C219.962 22.484 220.291 22.2686 220.556 21.9987C220.826 21.7241 221.03 21.4234 221.167 21.0967L222.367 21.4873C222.201 21.9466 221.929 22.3704 221.55 22.7586C221.176 23.1469 220.708 23.4594 220.144 23.6961C219.585 23.9281 218.942 24.0442 218.212 24.0442ZM232.752 15.3013L231.595 15.628C231.481 15.3013 231.32 15.0053 231.112 14.7402C230.904 14.475 230.631 14.2643 230.295 14.1081C229.964 13.9518 229.552 13.8737 229.059 13.8737C228.321 13.8737 227.715 14.0489 227.241 14.3993C226.768 14.7496 226.531 15.2018 226.531 15.7558C226.531 16.2245 226.692 16.6057 227.014 16.8993C227.341 17.1881 227.842 17.4177 228.52 17.5882L230.167 17.993C231.081 18.2156 231.765 18.5683 232.22 19.0513C232.679 19.5342 232.909 20.1403 232.909 20.8694C232.909 21.485 232.738 22.0318 232.397 22.5101C232.056 22.9883 231.581 23.3647 230.97 23.6393C230.364 23.9092 229.661 24.0442 228.86 24.0442C227.795 24.0442 226.917 23.805 226.225 23.3268C225.534 22.8439 225.092 22.1478 224.897 21.2388L226.112 20.9405C226.268 21.5891 226.574 22.0792 227.028 22.4106C227.487 22.7421 228.091 22.9078 228.839 22.9078C229.677 22.9078 230.347 22.7208 230.849 22.3467C231.351 21.9679 231.602 21.4944 231.602 20.9263C231.602 20.4859 231.455 20.1166 231.162 19.8183C230.868 19.5153 230.423 19.2927 229.826 19.1507L228.044 18.7245C227.097 18.4973 226.396 18.1374 225.941 17.645C225.487 17.1526 225.26 16.5418 225.26 15.8126C225.26 15.2113 225.423 14.6834 225.75 14.2288C226.076 13.7695 226.526 13.4097 227.099 13.1493C227.672 12.8888 228.325 12.7586 229.059 12.7586C230.058 12.7586 230.856 12.9859 231.453 13.4405C232.054 13.8903 232.487 14.5105 232.752 15.3013ZM239.974 12.9078V14.0086H234.768V12.9078H239.974ZM236.394 10.2942H237.665V20.9689C237.665 21.4234 237.744 21.7809 237.9 22.0413C238.056 22.297 238.26 22.4793 238.511 22.5882C238.762 22.6924 239.029 22.7444 239.313 22.7444C239.479 22.7444 239.621 22.735 239.739 22.716C239.858 22.6924 239.962 22.6687 240.052 22.645L240.322 23.7885C240.199 23.8358 240.047 23.8784 239.867 23.9163C239.687 23.9589 239.465 23.9802 239.2 23.9802C238.736 23.9802 238.288 23.8784 237.857 23.6748C237.431 23.4712 237.081 23.1682 236.806 22.7657C236.531 22.3633 236.394 21.8638 236.394 21.2672V10.2942ZM247.852 10.4646V9.27142H258.399V10.4646H253.789V23.8169H252.461V10.4646H247.852ZM263.955 24.0442C262.937 24.0442 262.056 23.8074 261.312 23.3339C260.569 22.8557 259.994 22.1952 259.587 21.3524C259.184 20.5049 258.983 19.5295 258.983 18.4263C258.983 17.3278 259.184 16.3524 259.587 15.5001C259.994 14.6431 260.555 13.9731 261.27 13.4902C261.99 13.0025 262.821 12.7586 263.763 12.7586C264.355 12.7586 264.925 12.8675 265.474 13.0853C266.024 13.2984 266.516 13.6275 266.952 14.0726C267.392 14.5129 267.74 15.0692 267.996 15.7416C268.251 16.4092 268.379 17.1999 268.379 18.1138V18.7388H259.857V17.6237H267.087C267.087 16.9229 266.945 16.2932 266.661 15.7345C266.381 15.171 265.991 14.726 265.489 14.3993C264.991 14.0726 264.416 13.9092 263.763 13.9092C263.071 13.9092 262.463 14.0939 261.938 14.4632C261.412 14.8325 261 15.3202 260.702 15.9263C260.408 16.5323 260.259 17.1952 260.254 17.9149V18.5825C260.254 19.449 260.403 20.2066 260.702 20.8552C261.005 21.4992 261.433 21.9987 261.987 22.3538C262.541 22.7089 263.197 22.8865 263.955 22.8865C264.471 22.8865 264.923 22.806 265.311 22.645C265.704 22.484 266.033 22.2686 266.298 21.9987C266.568 21.7241 266.772 21.4234 266.909 21.0967L268.109 21.4873C267.944 21.9466 267.671 22.3704 267.293 22.7586C266.919 23.1469 266.45 23.4594 265.886 23.6961C265.328 23.9281 264.684 24.0442 263.955 24.0442ZM275.426 24.0442C274.451 24.0442 273.601 23.8003 272.877 23.3126C272.157 22.8249 271.598 22.1573 271.201 21.3098C270.803 20.4622 270.604 19.4963 270.604 18.412C270.604 17.3183 270.805 16.3453 271.208 15.493C271.615 14.6407 272.178 13.9731 272.898 13.4902C273.618 13.0025 274.453 12.7586 275.405 12.7586C276.134 12.7586 276.795 12.9007 277.387 13.1848C277.979 13.4641 278.466 13.8595 278.85 14.3709C279.238 14.8775 279.482 15.4693 279.581 16.1464H278.303C278.17 15.5309 277.851 15.0053 277.344 14.5697C276.842 14.1294 276.203 13.9092 275.426 13.9092C274.73 13.9092 274.115 14.0986 273.58 14.4774C273.045 14.8514 272.626 15.3746 272.323 16.047C272.025 16.7146 271.875 17.4888 271.875 18.3694C271.875 19.2549 272.022 20.0385 272.316 20.7203C272.609 21.3974 273.021 21.9277 273.551 22.3112C274.087 22.6947 274.712 22.8865 275.426 22.8865C275.909 22.8865 276.35 22.7965 276.748 22.6166C277.15 22.4319 277.486 22.1715 277.756 21.8353C278.031 21.4992 278.215 21.0991 278.31 20.6351H279.588C279.494 21.2932 279.259 21.8803 278.885 22.3964C278.516 22.9078 278.035 23.3103 277.444 23.6038C276.856 23.8974 276.184 24.0442 275.426 24.0442ZM283.562 16.9987V23.8169H282.298V9.27142H283.562V14.6194H283.676C283.931 14.056 284.327 13.6062 284.862 13.27C285.402 12.9338 286.083 12.7657 286.907 12.7657C287.646 12.7657 288.295 12.9173 288.853 13.2203C289.412 13.5233 289.848 13.9708 290.16 14.5626C290.473 15.1545 290.629 15.8836 290.629 16.7501V23.8169H289.358V16.8282C289.358 15.9286 289.107 15.2208 288.605 14.7047C288.108 14.1838 287.435 13.9234 286.588 13.9234C286.005 13.9234 285.487 14.0465 285.032 14.2927C284.578 14.5389 284.218 14.8941 283.953 15.3581C283.692 15.8174 283.562 16.3642 283.562 16.9987Z" fill="#0C0C0C"/>
</svg>
