<svg width="25" height="24" viewBox="0 0 25 24" fill="none" xmlns="http://www.w3.org/2000/svg">
<path d="M13.9002 17.4201H11.3902C9.75016 17.4201 8.42016 16.0401 8.42016 14.3401C8.42016 13.9301 8.76016 13.5901 9.17016 13.5901C9.58016 13.5901 9.92016 13.9301 9.92016 14.3401C9.92016 15.2101 10.5802 15.9201 11.3902 15.9201H13.9002C14.5502 15.9201 15.0902 15.3401 15.0902 14.6401C15.0902 13.7701 14.7802 13.6001 14.2702 13.4201L10.2402 12.0001C9.46016 11.7301 8.41016 11.1501 8.41016 9.36008C8.41016 7.82008 9.62016 6.58008 11.1002 6.58008H13.6102C15.2502 6.58008 16.5802 7.96008 16.5802 9.66008C16.5802 10.0701 16.2402 10.4101 15.8302 10.4101C15.4202 10.4101 15.0802 10.0701 15.0802 9.66008C15.0802 8.79008 14.4202 8.08008 13.6102 8.08008H11.1002C10.4502 8.08008 9.91016 8.66008 9.91016 9.36008C9.91016 10.2301 10.2202 10.4001 10.7302 10.5801L14.7602 12.0001C15.5402 12.2701 16.5902 12.8501 16.5902 14.6401C16.5802 16.1701 15.3802 17.4201 13.9002 17.4201Z" fill="#0C0C0C"/>
<path d="M12.5 18.75C12.09 18.75 11.75 18.41 11.75 18V6C11.75 5.59 12.09 5.25 12.5 5.25C12.91 5.25 13.25 5.59 13.25 6V18C13.25 18.41 12.91 18.75 12.5 18.75Z" fill="#0C0C0C"/>
<path d="M12.5 22.75C6.57 22.75 1.75 17.93 1.75 12C1.75 6.07 6.57 1.25 12.5 1.25C18.43 1.25 23.25 6.07 23.25 12C23.25 17.93 18.43 22.75 12.5 22.75ZM12.5 2.75C7.4 2.75 3.25 6.9 3.25 12C3.25 17.1 7.4 21.25 12.5 21.25C17.6 21.25 21.75 17.1 21.75 12C21.75 6.9 17.6 2.75 12.5 2.75Z" fill="#0C0C0C"/>
</svg>
