<svg width="30px" height="auto" viewBox="0 0 24 24" fill="none" xmlns="http://www.w3.org/2000/svg">
<path fill-rule="evenodd" clip-rule="evenodd" d="M5.30409 3.87305L5.95241 5.08326C7.48482 7.94374 9.67258 8.82129 11.0352 8.99412V8.48206C11.0352 6.00664 13.0419 3.99992 15.5173 3.99992C17.9927 3.99992 19.9995 6.00664 19.9995 8.48206V9.99992C19.9995 16.6287 15.3 20.9999 9.89236 20.9999C7.51587 20.9999 5.83711 20.2246 4.74357 19.4146C4.20188 19.0133 3.8106 18.6089 3.55027 18.2974C3.41995 18.1415 3.32179 18.0081 3.25339 17.9087C3.21916 17.8591 3.1923 17.8178 3.17251 17.7864C3.16262 17.7707 3.15448 17.7574 3.14807 17.7468L3.13972 17.7328L3.13652 17.7274L3.13515 17.725L3.13453 17.7239C3.13453 17.7239 3.13394 17.7229 3.99951 17.2221L3.13393 17.7229L2.26562 16.2221H3.99951C5.10348 16.2221 5.75336 16.2179 6.39215 16.0505C7.00122 15.8908 7.66637 15.5608 8.67787 14.7741L9.90575 16.3528C8.77438 17.2327 7.86481 17.732 6.89917 17.9851C6.72239 18.0314 6.54601 18.0687 6.36918 18.0987C7.15895 18.575 8.30349 18.9999 9.89236 18.9999C14.1275 18.9999 17.9995 15.5933 17.9995 9.99992V8.48206C17.9995 7.11121 16.8882 5.99992 15.5173 5.99992C14.1465 5.99992 13.0352 7.11121 13.0352 8.48206V10.8787L12.1637 10.9916C10.5719 11.198 7.4284 10.5993 5.09296 7.45762C5.00773 7.77709 4.98664 8.10751 5.03079 8.43629C5.13452 9.2088 5.6161 10.087 6.71105 10.844L5.57369 12.4891C4.09721 11.4684 3.2395 10.1244 3.04858 8.70244C2.85795 7.28263 3.34986 5.89966 4.35109 4.86134L5.30409 3.87305Z" fill="#1DA1F2"/>
<path fill-rule="evenodd" clip-rule="evenodd" d="M5.46103 12.8801C6.03913 12.7971 6.55726 12.4861 6.80007 12.3097L7.97561 13.9277C7.61226 14.1917 6.78371 14.7107 5.74522 14.8598C4.63709 15.0189 3.34129 14.742 2.25195 13.4811L3.7654 12.1736C4.36187 12.864 4.95257 12.9531 5.46103 12.8801Z" fill="#1DA1F2"/>
<path fill-rule="evenodd" clip-rule="evenodd" d="M19.7858 5.48333C19.9027 5.3414 19.9874 5.12005 19.986 4.74226L21.986 4.73486C21.9885 5.40635 21.8369 6.13878 21.3297 6.75469C20.8209 7.37268 20.066 7.73755 19.1352 7.8973L18.7969 5.92612C19.4136 5.82027 19.6707 5.6232 19.7858 5.48333Z" fill="#1DA1F2"/>
</svg>
