<svg width="40" height="40" viewBox="0 0 40 40" fill="none" xmlns="http://www.w3.org/2000/svg">
<rect width="40" height="40" rx="20" fill="#AECDFB"/>
<path d="M16.2266 24.7733C15.9733 24.7733 15.72 24.68 15.52 24.48C15.1333 24.0933 15.1333 23.4533 15.52 23.0667L23.0666 15.52C23.4533 15.1333 24.0933 15.1333 24.48 15.52C24.8666 15.9067 24.8666 16.5467 24.48 16.9333L16.9333 24.48C16.7466 24.68 16.48 24.7733 16.2266 24.7733Z" fill="#2D2D2D"/>
<path d="M23.7733 24.7733C23.52 24.7733 23.2666 24.68 23.0666 24.48L15.52 16.9333C15.1333 16.5467 15.1333 15.9067 15.52 15.52C15.9066 15.1333 16.5466 15.1333 16.9333 15.52L24.48 23.0667C24.8666 23.4533 24.8666 24.0933 24.48 24.48C24.28 24.68 24.0266 24.7733 23.7733 24.7733Z" fill="#2D2D2D"/>
</svg>
